<svg width="59" height="47" viewBox="0 0 59 47" fill="none" xmlns="http://www.w3.org/2000/svg">
<mask id="path-1-outside-1_3932_1643" maskUnits="userSpaceOnUse" x="2" y="1.38281" width="52" height="44" fill="black">
<rect fill="white" x="2" y="1.38281" width="52" height="44"/>
<path d="M3.024 43.4868C3.024 40.6068 3.024 37.8228 3.024 35.1348C3.12 32.3508 3.216 29.8068 3.312 27.5028C3.504 19.2468 4.8 13.0548 7.2 8.92681C9.6 4.70281 14.112 2.59081 20.736 2.59081L22.464 9.93481C18.72 10.0308 16.32 11.2788 15.264 13.6788C14.208 16.0788 13.68 19.1508 13.68 22.8948H23.616V43.4868H3.024ZM32.4 43.4868C32.4 40.6068 32.4 37.8228 32.4 35.1348C32.496 32.3508 32.592 29.8068 32.688 27.5028C32.88 19.2468 34.176 13.0548 36.576 8.92681C38.976 4.70281 43.488 2.59081 50.112 2.59081L51.84 9.93481C48.096 10.0308 45.696 11.2788 44.64 13.6788C43.584 16.0788 43.056 19.1508 43.056 22.8948H52.992V43.4868H32.4Z"/>
</mask>
<path d="M3.024 43.4868H2.024V44.4868H3.024V43.4868ZM3.024 35.1348L2.02459 35.1003L2.024 35.1176V35.1348H3.024ZM3.312 27.5028L4.31113 27.5444L4.31152 27.5352L4.31173 27.5261L3.312 27.5028ZM7.2 8.9268L8.06455 9.42945L8.06946 9.42081L7.2 8.9268ZM20.736 2.59081L21.7094 2.36177L21.528 1.59081H20.736V2.59081ZM22.464 9.93481L22.4896 10.9345L23.7191 10.903L23.4374 9.70577L22.464 9.93481ZM15.264 13.6788L14.3487 13.2761L14.3487 13.2761L15.264 13.6788ZM13.68 22.8948H12.68V23.8948H13.68V22.8948ZM23.616 22.8948H24.616V21.8948H23.616V22.8948ZM23.616 43.4868V44.4868H24.616V43.4868H23.616ZM32.4 43.4868H31.4V44.4868H32.4V43.4868ZM32.4 35.1348L31.4006 35.1003L31.4 35.1176V35.1348H32.4ZM32.688 27.5028L33.6871 27.5444L33.6875 27.5352L33.6877 27.5261L32.688 27.5028ZM36.576 8.9268L37.4406 9.42945L37.4455 9.42081L36.576 8.9268ZM50.112 2.59081L51.0854 2.36177L50.904 1.59081H50.112V2.59081ZM51.84 9.93481L51.8656 10.9345L53.0951 10.903L52.8134 9.70577L51.84 9.93481ZM44.64 13.6788L43.7247 13.2761V13.2761L44.64 13.6788ZM43.056 22.8948H42.056V23.8948H43.056V22.8948ZM52.992 22.8948H53.992V21.8948H52.992V22.8948ZM52.992 43.4868V44.4868H53.992V43.4868H52.992ZM4.024 43.4868C4.024 43.4812 4.024 43.4756 4.024 43.4699C4.024 43.4643 4.024 43.4587 4.024 43.4531C4.024 43.4474 4.024 43.4418 4.024 43.4362C4.024 43.4306 4.024 43.4249 4.024 43.4193C4.024 43.4137 4.024 43.4081 4.024 43.4025C4.024 43.3968 4.024 43.3912 4.024 43.3856C4.024 43.38 4.024 43.3744 4.024 43.3687C4.024 43.3631 4.024 43.3575 4.024 43.3519C4.024 43.3463 4.024 43.3406 4.024 43.335C4.024 43.3294 4.024 43.3238 4.024 43.3182C4.024 43.3125 4.024 43.3069 4.024 43.3013C4.024 43.2957 4.024 43.2901 4.024 43.2845C4.024 43.2788 4.024 43.2732 4.024 43.2676C4.024 43.262 4.024 43.2564 4.024 43.2508C4.024 43.2452 4.024 43.2395 4.024 43.2339C4.024 43.2283 4.024 43.2227 4.024 43.2171C4.024 43.2115 4.024 43.2059 4.024 43.2002C4.024 43.1946 4.024 43.189 4.024 43.1834C4.024 43.1778 4.024 43.1722 4.024 43.1666C4.024 43.161 4.024 43.1554 4.024 43.1497C4.024 43.1441 4.024 43.1385 4.024 43.1329C4.024 43.1273 4.024 43.1217 4.024 43.1161C4.024 43.1105 4.024 43.1049 4.024 43.0993C4.024 43.0937 4.024 43.0881 4.024 43.0824C4.024 43.0768 4.024 43.0712 4.024 43.0656C4.024 43.06 4.024 43.0544 4.024 43.0488C4.024 43.0432 4.024 43.0376 4.024 43.032C4.024 43.0264 4.024 43.0208 4.024 43.0152C4.024 43.0096 4.024 43.004 4.024 42.9984C4.024 42.9928 4.024 42.9872 4.024 42.9815C4.024 42.9759 4.024 42.9703 4.024 42.9647C4.024 42.9591 4.024 42.9535 4.024 42.9479C4.024 42.9423 4.024 42.9367 4.024 42.9311C4.024 42.9255 4.024 42.9199 4.024 42.9143C4.024 42.9087 4.024 42.9031 4.024 42.8975C4.024 42.8919 4.024 42.8863 4.024 42.8807C4.024 42.8751 4.024 42.8695 4.024 42.8639C4.024 42.8583 4.024 42.8527 4.024 42.8471C4.024 42.8415 4.024 42.836 4.024 42.8304C4.024 42.8248 4.024 42.8192 4.024 42.8136C4.024 42.808 4.024 42.8024 4.024 42.7968C4.024 42.7912 4.024 42.7856 4.024 42.78C4.024 42.7744 4.024 42.7688 4.024 42.7632C4.024 42.7576 4.024 42.752 4.024 42.7464C4.024 42.7408 4.024 42.7353 4.024 42.7297C4.024 42.7241 4.024 42.7185 4.024 42.7129C4.024 42.7073 4.024 42.7017 4.024 42.6961C4.024 42.6905 4.024 42.6849 4.024 42.6793C4.024 42.6738 4.024 42.6682 4.024 42.6626C4.024 42.657 4.024 42.6514 4.024 42.6458C4.024 42.6402 4.024 42.6346 4.024 42.629C4.024 42.6235 4.024 42.6179 4.024 42.6123C4.024 42.6067 4.024 42.6011 4.024 42.5955C4.024 42.5899 4.024 42.5843 4.024 42.5788C4.024 42.5732 4.024 42.5676 4.024 42.562C4.024 42.5564 4.024 42.5508 4.024 42.5452C4.024 42.5397 4.024 42.5341 4.024 42.5285C4.024 42.5229 4.024 42.5173 4.024 42.5118C4.024 42.5062 4.024 42.5006 4.024 42.495C4.024 42.4894 4.024 42.4838 4.024 42.4783C4.024 42.4727 4.024 42.4671 4.024 42.4615C4.024 42.4559 4.024 42.4504 4.024 42.4448C4.024 42.4392 4.024 42.4336 4.024 42.428C4.024 42.4225 4.024 42.4169 4.024 42.4113C4.024 42.4057 4.024 42.4002 4.024 42.3946C4.024 42.389 4.024 42.3834 4.024 42.3778C4.024 42.3723 4.024 42.3667 4.024 42.3611C4.024 42.3555 4.024 42.35 4.024 42.3444C4.024 42.3388 4.024 42.3332 4.024 42.3277C4.024 42.3221 4.024 42.3165 4.024 42.3109C4.024 42.3054 4.024 42.2998 4.024 42.2942C4.024 42.2887 4.024 42.2831 4.024 42.2775C4.024 42.2719 4.024 42.2664 4.024 42.2608C4.024 42.2552 4.024 42.2496 4.024 42.2441C4.024 42.2385 4.024 42.2329 4.024 42.2274C4.024 42.2218 4.024 42.2162 4.024 42.2107C4.024 42.2051 4.024 42.1995 4.024 42.1939C4.024 42.1884 4.024 42.1828 4.024 42.1772C4.024 42.1717 4.024 42.1661 4.024 42.1605C4.024 42.155 4.024 42.1494 4.024 42.1438C4.024 42.1383 4.024 42.1327 4.024 42.1271C4.024 42.1216 4.024 42.116 4.024 42.1104C4.024 42.1049 4.024 42.0993 4.024 42.0938C4.024 42.0882 4.024 42.0826 4.024 42.0771C4.024 42.0715 4.024 42.0659 4.024 42.0604C4.024 42.0548 4.024 42.0492 4.024 42.0437C4.024 42.0381 4.024 42.0326 4.024 42.027C4.024 42.0214 4.024 42.0159 4.024 42.0103C4.024 42.0048 4.024 41.9992 4.024 41.9936C4.024 41.9881 4.024 41.9825 4.024 41.977C4.024 41.9714 4.024 41.9658 4.024 41.9603C4.024 41.9547 4.024 41.9492 4.024 41.9436C4.024 41.938 4.024 41.9325 4.024 41.9269C4.024 41.9214 4.024 41.9158 4.024 41.9103C4.024 41.9047 4.024 41.8992 4.024 41.8936C4.024 41.888 4.024 41.8825 4.024 41.8769C4.024 41.8714 4.024 41.8658 4.024 41.8603C4.024 41.8547 4.024 41.8492 4.024 41.8436C4.024 41.8381 4.024 41.8325 4.024 41.827C4.024 41.8214 4.024 41.8158 4.024 41.8103C4.024 41.8047 4.024 41.7992 4.024 41.7936C4.024 41.7881 4.024 41.7825 4.024 41.777C4.024 41.7714 4.024 41.7659 4.024 41.7603C4.024 41.7548 4.024 41.7492 4.024 41.7437C4.024 41.7381 4.024 41.7326 4.024 41.727C4.024 41.7215 4.024 41.716 4.024 41.7104C4.024 41.7049 4.024 41.6993 4.024 41.6938C4.024 41.6882 4.024 41.6827 4.024 41.6771C4.024 41.6716 4.024 41.666 4.024 41.6605C4.024 41.6549 4.024 41.6494 4.024 41.6439C4.024 41.6383 4.024 41.6328 4.024 41.6272C4.024 41.6217 4.024 41.6161 4.024 41.6106C4.024 41.605 4.024 41.5995 4.024 41.594C4.024 41.5884 4.024 41.5829 4.024 41.5773C4.024 41.5718 4.024 41.5663 4.024 41.5607C4.024 41.5552 4.024 41.5496 4.024 41.5441C4.024 41.5386 4.024 41.533 4.024 41.5275C4.024 41.5219 4.024 41.5164 4.024 41.5109C4.024 41.5053 4.024 41.4998 4.024 41.4942C4.024 41.4887 4.024 41.4832 4.024 41.4776C4.024 41.4721 4.024 41.4666 4.024 41.461C4.024 41.4555 4.024 41.4499 4.024 41.4444C4.024 41.4389 4.024 41.4333 4.024 41.4278C4.024 41.4223 4.024 41.4167 4.024 41.4112C4.024 41.4057 4.024 41.4001 4.024 41.3946C4.024 41.3891 4.024 41.3835 4.024 41.378C4.024 41.3725 4.024 41.3669 4.024 41.3614C4.024 41.3559 4.024 41.3503 4.024 41.3448C4.024 41.3393 4.024 41.3337 4.024 41.3282C4.024 41.3227 4.024 41.3172 4.024 41.3116C4.024 41.3061 4.024 41.3006 4.024 41.295C4.024 41.2895 4.024 41.284 4.024 41.2785C4.024 41.2729 4.024 41.2674 4.024 41.2619C4.024 41.2563 4.024 41.2508 4.024 41.2453C4.024 41.2398 4.024 41.2342 4.024 41.2287C4.024 41.2232 4.024 41.2177 4.024 41.2121C4.024 41.2066 4.024 41.2011 4.024 41.1956C4.024 41.19 4.024 41.1845 4.024 41.179C4.024 41.1735 4.024 41.1679 4.024 41.1624C4.024 41.1569 4.024 41.1514 4.024 41.1458C4.024 41.1403 4.024 41.1348 4.024 41.1293C4.024 41.1238 4.024 41.1182 4.024 41.1127C4.024 41.1072 4.024 41.1017 4.024 41.0962C4.024 41.0906 4.024 41.0851 4.024 41.0796C4.024 41.0741 4.024 41.0686 4.024 41.063C4.024 41.0575 4.024 41.052 4.024 41.0465C4.024 41.041 4.024 41.0354 4.024 41.0299C4.024 41.0244 4.024 41.0189 4.024 41.0134C4.024 41.0079 4.024 41.0023 4.024 40.9968C4.024 40.9913 4.024 40.9858 4.024 40.9803C4.024 40.9748 4.024 40.9692 4.024 40.9637C4.024 40.9582 4.024 40.9527 4.024 40.9472C4.024 40.9417 4.024 40.9362 4.024 40.9306C4.024 40.9251 4.024 40.9196 4.024 40.9141C4.024 40.9086 4.024 40.9031 4.024 40.8976C4.024 40.8921 4.024 40.8866 4.024 40.881C4.024 40.8755 4.024 40.87 4.024 40.8645C4.024 40.859 4.024 40.8535 4.024 40.848C4.024 40.8425 4.024 40.837 4.024 40.8315C4.024 40.826 4.024 40.8204 4.024 40.8149C4.024 40.8094 4.024 40.8039 4.024 40.7984C4.024 40.7929 4.024 40.7874 4.024 40.7819C4.024 40.7764 4.024 40.7709 4.024 40.7654C4.024 40.7599 4.024 40.7544 4.024 40.7489C4.024 40.7434 4.024 40.7378 4.024 40.7323C4.024 40.7268 4.024 40.7213 4.024 40.7158C4.024 40.7103 4.024 40.7048 4.024 40.6993C4.024 40.6938 4.024 40.6883 4.024 40.6828C4.024 40.6773 4.024 40.6718 4.024 40.6663C4.024 40.6608 4.024 40.6553 4.024 40.6498C4.024 40.6443 4.024 40.6388 4.024 40.6333C4.024 40.6278 4.024 40.6223 4.024 40.6168C4.024 40.6113 4.024 40.6058 4.024 40.6003C4.024 40.5948 4.024 40.5893 4.024 40.5838C4.024 40.5783 4.024 40.5728 4.024 40.5673C4.024 40.5618 4.024 40.5563 4.024 40.5508C4.024 40.5453 4.024 40.5398 4.024 40.5344C4.024 40.5289 4.024 40.5234 4.024 40.5179C4.024 40.5124 4.024 40.5069 4.024 40.5014C4.024 40.4959 4.024 40.4904 4.024 40.4849C4.024 40.4794 4.024 40.4739 4.024 40.4684C4.024 40.4629 4.024 40.4574 4.024 40.452C4.024 40.4465 4.024 40.441 4.024 40.4355C4.024 40.43 4.024 40.4245 4.024 40.419C4.024 40.4135 4.024 40.408 4.024 40.4025C4.024 40.397 4.024 40.3916 4.024 40.3861C4.024 40.3806 4.024 40.3751 4.024 40.3696C4.024 40.3641 4.024 40.3586 4.024 40.3531C4.024 40.3476 4.024 40.3422 4.024 40.3367C4.024 40.3312 4.024 40.3257 4.024 40.3202C4.024 40.3147 4.024 40.3092 4.024 40.3038C4.024 40.2983 4.024 40.2928 4.024 40.2873C4.024 40.2818 4.024 40.2763 4.024 40.2709C4.024 40.2654 4.024 40.2599 4.024 40.2544C4.024 40.2489 4.024 40.2434 4.024 40.238C4.024 40.2325 4.024 40.227 4.024 40.2215C4.024 40.216 4.024 40.2105 4.024 40.2051C4.024 40.1996 4.024 40.1941 4.024 40.1886C4.024 40.1832 4.024 40.1777 4.024 40.1722C4.024 40.1667 4.024 40.1612 4.024 40.1558C4.024 40.1503 4.024 40.1448 4.024 40.1393C4.024 40.1338 4.024 40.1284 4.024 40.1229C4.024 40.1174 4.024 40.1119 4.024 40.1065C4.024 40.101 4.024 40.0955 4.024 40.09C4.024 40.0846 4.024 40.0791 4.024 40.0736C4.024 40.0681 4.024 40.0627 4.024 40.0572C4.024 40.0517 4.024 40.0462 4.024 40.0408C4.024 40.0353 4.024 40.0298 4.024 40.0243C4.024 40.0189 4.024 40.0134 4.024 40.0079C4.024 40.0024 4.024 39.997 4.024 39.9915C4.024 39.986 4.024 39.9806 4.024 39.9751C4.024 39.9696 4.024 39.9642 4.024 39.9587C4.024 39.9532 4.024 39.9477 4.024 39.9423C4.024 39.9368 4.024 39.9313 4.024 39.9259C4.024 39.9204 4.024 39.9149 4.024 39.9095C4.024 39.904 4.024 39.8985 4.024 39.8931C4.024 39.8876 4.024 39.8821 4.024 39.8767C4.024 39.8712 4.024 39.8657 4.024 39.8603C4.024 39.8548 4.024 39.8493 4.024 39.8439C4.024 39.8384 4.024 39.8329 4.024 39.8275C4.024 39.822 4.024 39.8166 4.024 39.8111C4.024 39.8056 4.024 39.8002 4.024 39.7947C4.024 39.7892 4.024 39.7838 4.024 39.7783C4.024 39.7729 4.024 39.7674 4.024 39.7619C4.024 39.7565 4.024 39.751 4.024 39.7456C4.024 39.7401 4.024 39.7346 4.024 39.7292C4.024 39.7237 4.024 39.7183 4.024 39.7128C4.024 39.7073 4.024 39.7019 4.024 39.6964C4.024 39.691 4.024 39.6855 4.024 39.68C4.024 39.6746 4.024 39.6691 4.024 39.6637C4.024 39.6582 4.024 39.6528 4.024 39.6473C4.024 39.6419 4.024 39.6364 4.024 39.6309C4.024 39.6255 4.024 39.62 4.024 39.6146C4.024 39.6091 4.024 39.6037 4.024 39.5982C4.024 39.5928 4.024 39.5873 4.024 39.5819C4.024 39.5764 4.024 39.571 4.024 39.5655C4.024 39.5601 4.024 39.5546 4.024 39.5491C4.024 39.5437 4.024 39.5382 4.024 39.5328C4.024 39.5273 4.024 39.5219 4.024 39.5164C4.024 39.511 4.024 39.5055 4.024 39.5001C4.024 39.4946 4.024 39.4892 4.024 39.4837C4.024 39.4783 4.024 39.4728 4.024 39.4674C4.024 39.462 4.024 39.4565 4.024 39.4511C4.024 39.4456 4.024 39.4402 4.024 39.4347C4.024 39.4293 4.024 39.4238 4.024 39.4184C4.024 39.4129 4.024 39.4075 4.024 39.402C4.024 39.3966 4.024 39.3912 4.024 39.3857C4.024 39.3803 4.024 39.3748 4.024 39.3694C4.024 39.3639 4.024 39.3585 4.024 39.3531C4.024 39.3476 4.024 39.3422 4.024 39.3367C4.024 39.3313 4.024 39.3258 4.024 39.3204C4.024 39.315 4.024 39.3095 4.024 39.3041C4.024 39.2986 4.024 39.2932 4.024 39.2878C4.024 39.2823 4.024 39.2769 4.024 39.2714C4.024 39.266 4.024 39.2606 4.024 39.2551C4.024 39.2497 4.024 39.2442 4.024 39.2388C4.024 39.2334 4.024 39.2279 4.024 39.2225C4.024 39.2171 4.024 39.2116 4.024 39.2062C4.024 39.2008 4.024 39.1953 4.024 39.1899C4.024 39.1844 4.024 39.179 4.024 39.1736C4.024 39.1681 4.024 39.1627 4.024 39.1573C4.024 39.1518 4.024 39.1464 4.024 39.141C4.024 39.1355 4.024 39.1301 4.024 39.1247C4.024 39.1192 4.024 39.1138 4.024 39.1084C4.024 39.103 4.024 39.0975 4.024 39.0921C4.024 39.0867 4.024 39.0812 4.024 39.0758C4.024 39.0704 4.024 39.0649 4.024 39.0595C4.024 39.0541 4.024 39.0486 4.024 39.0432C4.024 39.0378 4.024 39.0324 4.024 39.0269C4.024 39.0215 4.024 39.0161 4.024 39.0107C4.024 39.0052 4.024 38.9998 4.024 38.9944C4.024 38.9889 4.024 38.9835 4.024 38.9781C4.024 38.9727 4.024 38.9672 4.024 38.9618C4.024 38.9564 4.024 38.951 4.024 38.9455C4.024 38.9401 4.024 38.9347 4.024 38.9293C4.024 38.9238 4.024 38.9184 4.024 38.913C4.024 38.9076 4.024 38.9022 4.024 38.8967C4.024 38.8913 4.024 38.8859 4.024 38.8805C4.024 38.875 4.024 38.8696 4.024 38.8642C4.024 38.8588 4.024 38.8534 4.024 38.8479C4.024 38.8425 4.024 38.8371 4.024 38.8317C4.024 38.8263 4.024 38.8208 4.024 38.8154C4.024 38.81 4.024 38.8046 4.024 38.7992C4.024 38.7938 4.024 38.7883 4.024 38.7829C4.024 38.7775 4.024 38.7721 4.024 38.7667C4.024 38.7613 4.024 38.7558 4.024 38.7504C4.024 38.745 4.024 38.7396 4.024 38.7342C4.024 38.7288 4.024 38.7234 4.024 38.7179C4.024 38.7125 4.024 38.7071 4.024 38.7017C4.024 38.6963 4.024 38.6909 4.024 38.6855C4.024 38.68 4.024 38.6746 4.024 38.6692C4.024 38.6638 4.024 38.6584 4.024 38.653C4.024 38.6476 4.024 38.6422 4.024 38.6367C4.024 38.6313 4.024 38.6259 4.024 38.6205C4.024 38.6151 4.024 38.6097 4.024 38.6043C4.024 38.5989 4.024 38.5935 4.024 38.5881C4.024 38.5827 4.024 38.5773 4.024 38.5718C4.024 38.5664 4.024 38.561 4.024 38.5556C4.024 38.5502 4.024 38.5448 4.024 38.5394C4.024 38.534 4.024 38.5286 4.024 38.5232C4.024 38.5178 4.024 38.5124 4.024 38.507C4.024 38.5016 4.024 38.4962 4.024 38.4908C4.024 38.4854 4.024 38.4799 4.024 38.4745C4.024 38.4691 4.024 38.4637 4.024 38.4583C4.024 38.4529 4.024 38.4475 4.024 38.4421C4.024 38.4367 4.024 38.4313 4.024 38.4259C4.024 38.4205 4.024 38.4151 4.024 38.4097C4.024 38.4043 4.024 38.3989 4.024 38.3935C4.024 38.3881 4.024 38.3827 4.024 38.3773C4.024 38.3719 4.024 38.3665 4.024 38.3611C4.024 38.3557 4.024 38.3503 4.024 38.3449C4.024 38.3395 4.024 38.3342 4.024 38.3288C4.024 38.3234 4.024 38.318 4.024 38.3126C4.024 38.3072 4.024 38.3018 4.024 38.2964C4.024 38.291 4.024 38.2856 4.024 38.2802C4.024 38.2748 4.024 38.2694 4.024 38.264C4.024 38.2586 4.024 38.2532 4.024 38.2478C4.024 38.2424 4.024 38.2371 4.024 38.2317C4.024 38.2263 4.024 38.2209 4.024 38.2155C4.024 38.2101 4.024 38.2047 4.024 38.1993C4.024 38.1939 4.024 38.1885 4.024 38.1831C4.024 38.1777 4.024 38.1724 4.024 38.167C4.024 38.1616 4.024 38.1562 4.024 38.1508C4.024 38.1454 4.024 38.14 4.024 38.1346C4.024 38.1292 4.024 38.1239 4.024 38.1185C4.024 38.1131 4.024 38.1077 4.024 38.1023C4.024 38.0969 4.024 38.0915 4.024 38.0862C4.024 38.0808 4.024 38.0754 4.024 38.07C4.024 38.0646 4.024 38.0592 4.024 38.0539C4.024 38.0485 4.024 38.0431 4.024 38.0377C4.024 38.0323 4.024 38.0269 4.024 38.0216C4.024 38.0162 4.024 38.0108 4.024 38.0054C4.024 38 4.024 37.9946 4.024 37.9893C4.024 37.9839 4.024 37.9785 4.024 37.9731C4.024 37.9677 4.024 37.9624 4.024 37.957C4.024 37.9516 4.024 37.9462 4.024 37.9408C4.024 37.9355 4.024 37.9301 4.024 37.9247C4.024 37.9193 4.024 37.9139 4.024 37.9086C4.024 37.9032 4.024 37.8978 4.024 37.8924C4.024 37.8871 4.024 37.8817 4.024 37.8763C4.024 37.8709 4.024 37.8656 4.024 37.8602C4.024 37.8548 4.024 37.8494 4.024 37.8441C4.024 37.8387 4.024 37.8333 4.024 37.8279C4.024 37.8226 4.024 37.8172 4.024 37.8118C4.024 37.8064 4.024 37.8011 4.024 37.7957C4.024 37.7903 4.024 37.785 4.024 37.7796C4.024 37.7742 4.024 37.7688 4.024 37.7635C4.024 37.7581 4.024 37.7527 4.024 37.7474C4.024 37.742 4.024 37.7366 4.024 37.7312C4.024 37.7259 4.024 37.7205 4.024 37.7151C4.024 37.7098 4.024 37.7044 4.024 37.699C4.024 37.6937 4.024 37.6883 4.024 37.6829C4.024 37.6776 4.024 37.6722 4.024 37.6668C4.024 37.6615 4.024 37.6561 4.024 37.6507C4.024 37.6454 4.024 37.64 4.024 37.6346C4.024 37.6293 4.024 37.6239 4.024 37.6185C4.024 37.6132 4.024 37.6078 4.024 37.6025C4.024 37.5971 4.024 37.5917 4.024 37.5864C4.024 37.581 4.024 37.5756 4.024 37.5703C4.024 37.5649 4.024 37.5596 4.024 37.5542C4.024 37.5488 4.024 37.5435 4.024 37.5381C4.024 37.5328 4.024 37.5274 4.024 37.522C4.024 37.5167 4.024 37.5113 4.024 37.506C4.024 37.5006 4.024 37.4952 4.024 37.4899C4.024 37.4845 4.024 37.4792 4.024 37.4738C4.024 37.4684 4.024 37.4631 4.024 37.4577C4.024 37.4524 4.024 37.447 4.024 37.4417C4.024 37.4363 4.024 37.4309 4.024 37.4256C4.024 37.4202 4.024 37.4149 4.024 37.4095C4.024 37.4042 4.024 37.3988 4.024 37.3935C4.024 37.3881 4.024 37.3828 4.024 37.3774C4.024 37.372 4.024 37.3667 4.024 37.3613C4.024 37.356 4.024 37.3506 4.024 37.3453C4.024 37.3399 4.024 37.3346 4.024 37.3292C4.024 37.3239 4.024 37.3185 4.024 37.3132C4.024 37.3078 4.024 37.3025 4.024 37.2971C4.024 37.2918 4.024 37.2864 4.024 37.2811C4.024 37.2757 4.024 37.2704 4.024 37.265C4.024 37.2597 4.024 37.2543 4.024 37.249C4.024 37.2436 4.024 37.2383 4.024 37.233C4.024 37.2276 4.024 37.2223 4.024 37.2169C4.024 37.2116 4.024 37.2062 4.024 37.2009C4.024 37.1955 4.024 37.1902 4.024 37.1848C4.024 37.1795 4.024 37.1742 4.024 37.1688C4.024 37.1635 4.024 37.1581 4.024 37.1528C4.024 37.1474 4.024 37.1421 4.024 37.1367C4.024 37.1314 4.024 37.1261 4.024 37.1207C4.024 37.1154 4.024 37.11 4.024 37.1047C4.024 37.0994 4.024 37.094 4.024 37.0887C4.024 37.0833 4.024 37.078 4.024 37.0727C4.024 37.0673 4.024 37.062 4.024 37.0566C4.024 37.0513 4.024 37.046 4.024 37.0406C4.024 37.0353 4.024 37.03 4.024 37.0246C4.024 37.0193 4.024 37.0139 4.024 37.0086C4.024 37.0033 4.024 36.9979 4.024 36.9926C4.024 36.9873 4.024 36.9819 4.024 36.9766C4.024 36.9713 4.024 36.9659 4.024 36.9606C4.024 36.9553 4.024 36.9499 4.024 36.9446C4.024 36.9393 4.024 36.9339 4.024 36.9286C4.024 36.9233 4.024 36.9179 4.024 36.9126C4.024 36.9073 4.024 36.9019 4.024 36.8966C4.024 36.8913 4.024 36.8859 4.024 36.8806C4.024 36.8753 4.024 36.8699 4.024 36.8646C4.024 36.8593 4.024 36.854 4.024 36.8486C4.024 36.8433 4.024 36.838 4.024 36.8326C4.024 36.8273 4.024 36.822 4.024 36.8167C4.024 36.8113 4.024 36.806 4.024 36.8007C4.024 36.7953 4.024 36.79 4.024 36.7847C4.024 36.7794 4.024 36.774 4.024 36.7687C4.024 36.7634 4.024 36.7581 4.024 36.7527C4.024 36.7474 4.024 36.7421 4.024 36.7368C4.024 36.7314 4.024 36.7261 4.024 36.7208C4.024 36.7155 4.024 36.7102 4.024 36.7048C4.024 36.6995 4.024 36.6942 4.024 36.6889C4.024 36.6835 4.024 36.6782 4.024 36.6729C4.024 36.6676 4.024 36.6623 4.024 36.6569C4.024 36.6516 4.024 36.6463 4.024 36.641C4.024 36.6357 4.024 36.6303 4.024 36.625C4.024 36.6197 4.024 36.6144 4.024 36.6091C4.024 36.6037 4.024 36.5984 4.024 36.5931C4.024 36.5878 4.024 36.5825 4.024 36.5772C4.024 36.5718 4.024 36.5665 4.024 36.5612C4.024 36.5559 4.024 36.5506 4.024 36.5453C4.024 36.5399 4.024 36.5346 4.024 36.5293C4.024 36.524 4.024 36.5187 4.024 36.5134C4.024 36.5081 4.024 36.5027 4.024 36.4974C4.024 36.4921 4.024 36.4868 4.024 36.4815C4.024 36.4762 4.024 36.4709 4.024 36.4656C4.024 36.4603 4.024 36.4549 4.024 36.4496C4.024 36.4443 4.024 36.439 4.024 36.4337C4.024 36.4284 4.024 36.4231 4.024 36.4178C4.024 36.4125 4.024 36.4072 4.024 36.4018C4.024 36.3965 4.024 36.3912 4.024 36.3859C4.024 36.3806 4.024 36.3753 4.024 36.37C4.024 36.3647 4.024 36.3594 4.024 36.3541C4.024 36.3488 4.024 36.3435 4.024 36.3382C4.024 36.3328 4.024 36.3275 4.024 36.3222C4.024 36.3169 4.024 36.3116 4.024 36.3063C4.024 36.301 4.024 36.2957 4.024 36.2904C4.024 36.2851 4.024 36.2798 4.024 36.2745C4.024 36.2692 4.024 36.2639 4.024 36.2586C4.024 36.2533 4.024 36.248 4.024 36.2427C4.024 36.2374 4.024 36.2321 4.024 36.2268C4.024 36.2215 4.024 36.2162 4.024 36.2109C4.024 36.2056 4.024 36.2003 4.024 36.195C4.024 36.1897 4.024 36.1844 4.024 36.1791C4.024 36.1738 4.024 36.1685 4.024 36.1632C4.024 36.1579 4.024 36.1526 4.024 36.1473C4.024 36.142 4.024 36.1367 4.024 36.1314C4.024 36.1261 4.024 36.1208 4.024 36.1155C4.024 36.1102 4.024 36.1049 4.024 36.0996C4.024 36.0944 4.024 36.0891 4.024 36.0838C4.024 36.0785 4.024 36.0732 4.024 36.0679C4.024 36.0626 4.024 36.0573 4.024 36.052C4.024 36.0467 4.024 36.0414 4.024 36.0361C4.024 36.0308 4.024 36.0256 4.024 36.0203C4.024 36.015 4.024 36.0097 4.024 36.0044C4.024 35.9991 4.024 35.9938 4.024 35.9885C4.024 35.9832 4.024 35.9779 4.024 35.9726C4.024 35.9674 4.024 35.9621 4.024 35.9568C4.024 35.9515 4.024 35.9462 4.024 35.9409C4.024 35.9356 4.024 35.9303 4.024 35.9251C4.024 35.9198 4.024 35.9145 4.024 35.9092C4.024 35.9039 4.024 35.8986 4.024 35.8933C4.024 35.8881 4.024 35.8828 4.024 35.8775C4.024 35.8722 4.024 35.8669 4.024 35.8616C4.024 35.8564 4.024 35.8511 4.024 35.8458C4.024 35.8405 4.024 35.8352 4.024 35.8299C4.024 35.8247 4.024 35.8194 4.024 35.8141C4.024 35.8088 4.024 35.8035 4.024 35.7982C4.024 35.793 4.024 35.7877 4.024 35.7824C4.024 35.7771 4.024 35.7719 4.024 35.7666C4.024 35.7613 4.024 35.756 4.024 35.7507C4.024 35.7455 4.024 35.7402 4.024 35.7349C4.024 35.7296 4.024 35.7243 4.024 35.7191C4.024 35.7138 4.024 35.7085 4.024 35.7032C4.024 35.698 4.024 35.6927 4.024 35.6874C4.024 35.6821 4.024 35.6769 4.024 35.6716C4.024 35.6663 4.024 35.661 4.024 35.6558C4.024 35.6505 4.024 35.6452 4.024 35.6399C4.024 35.6347 4.024 35.6294 4.024 35.6241C4.024 35.6188 4.024 35.6136 4.024 35.6083C4.024 35.603 4.024 35.5978 4.024 35.5925C4.024 35.5872 4.024 35.5819 4.024 35.5767C4.024 35.5714 4.024 35.5661 4.024 35.5609C4.024 35.5556 4.024 35.5503 4.024 35.5451C4.024 35.5398 4.024 35.5345 4.024 35.5293C4.024 35.524 4.024 35.5187 4.024 35.5134C4.024 35.5082 4.024 35.5029 4.024 35.4976C4.024 35.4924 4.024 35.4871 4.024 35.4818C4.024 35.4766 4.024 35.4713 4.024 35.466C4.024 35.4608 4.024 35.4555 4.024 35.4502C4.024 35.445 4.024 35.4397 4.024 35.4345C4.024 35.4292 4.024 35.4239 4.024 35.4187C4.024 35.4134 4.024 35.4081 4.024 35.4029C4.024 35.3976 4.024 35.3924 4.024 35.3871C4.024 35.3818 4.024 35.3766 4.024 35.3713C4.024 35.3661 4.024 35.3608 4.024 35.3555C4.024 35.3503 4.024 35.345 4.024 35.3397C4.024 35.3345 4.024 35.3292 4.024 35.324C4.024 35.3187 4.024 35.3135 4.024 35.3082C4.024 35.3029 4.024 35.2977 4.024 35.2924C4.024 35.2872 4.024 35.2819 4.024 35.2766C4.024 35.2714 4.024 35.2661 4.024 35.2609C4.024 35.2556 4.024 35.2504 4.024 35.2451C4.024 35.2399 4.024 35.2346 4.024 35.2293C4.024 35.2241 4.024 35.2188 4.024 35.2136C4.024 35.2083 4.024 35.2031 4.024 35.1978C4.024 35.1926 4.024 35.1873 4.024 35.1821C4.024 35.1768 4.024 35.1716 4.024 35.1663C4.024 35.1611 4.024 35.1558 4.024 35.1506C4.024 35.1453 4.024 35.1401 4.024 35.1348H2.024C2.024 35.1401 2.024 35.1453 2.024 35.1506C2.024 35.1558 2.024 35.1611 2.024 35.1663C2.024 35.1716 2.024 35.1768 2.024 35.1821C2.024 35.1873 2.024 35.1926 2.024 35.1978C2.024 35.2031 2.024 35.2083 2.024 35.2136C2.024 35.2188 2.024 35.2241 2.024 35.2293C2.024 35.2346 2.024 35.2399 2.024 35.2451C2.024 35.2504 2.024 35.2556 2.024 35.2609C2.024 35.2661 2.024 35.2714 2.024 35.2766C2.024 35.2819 2.024 35.2872 2.024 35.2924C2.024 35.2977 2.024 35.3029 2.024 35.3082C2.024 35.3135 2.024 35.3187 2.024 35.324C2.024 35.3292 2.024 35.3345 2.024 35.3397C2.024 35.345 2.024 35.3503 2.024 35.3555C2.024 35.3608 2.024 35.3661 2.024 35.3713C2.024 35.3766 2.024 35.3818 2.024 35.3871C2.024 35.3924 2.024 35.3976 2.024 35.4029C2.024 35.4081 2.024 35.4134 2.024 35.4187C2.024 35.4239 2.024 35.4292 2.024 35.4345C2.024 35.4397 2.024 35.445 2.024 35.4502C2.024 35.4555 2.024 35.4608 2.024 35.466C2.024 35.4713 2.024 35.4766 2.024 35.4818C2.024 35.4871 2.024 35.4924 2.024 35.4976C2.024 35.5029 2.024 35.5082 2.024 35.5134C2.024 35.5187 2.024 35.524 2.024 35.5293C2.024 35.5345 2.024 35.5398 2.024 35.5451C2.024 35.5503 2.024 35.5556 2.024 35.5609C2.024 35.5661 2.024 35.5714 2.024 35.5767C2.024 35.5819 2.024 35.5872 2.024 35.5925C2.024 35.5978 2.024 35.603 2.024 35.6083C2.024 35.6136 2.024 35.6188 2.024 35.6241C2.024 35.6294 2.024 35.6347 2.024 35.6399C2.024 35.6452 2.024 35.6505 2.024 35.6558C2.024 35.661 2.024 35.6663 2.024 35.6716C2.024 35.6769 2.024 35.6821 2.024 35.6874C2.024 35.6927 2.024 35.698 2.024 35.7032C2.024 35.7085 2.024 35.7138 2.024 35.7191C2.024 35.7243 2.024 35.7296 2.024 35.7349C2.024 35.7402 2.024 35.7455 2.024 35.7507C2.024 35.756 2.024 35.7613 2.024 35.7666C2.024 35.7719 2.024 35.7771 2.024 35.7824C2.024 35.7877 2.024 35.793 2.024 35.7982C2.024 35.8035 2.024 35.8088 2.024 35.8141C2.024 35.8194 2.024 35.8247 2.024 35.8299C2.024 35.8352 2.024 35.8405 2.024 35.8458C2.024 35.8511 2.024 35.8564 2.024 35.8616C2.024 35.8669 2.024 35.8722 2.024 35.8775C2.024 35.8828 2.024 35.8881 2.024 35.8933C2.024 35.8986 2.024 35.9039 2.024 35.9092C2.024 35.9145 2.024 35.9198 2.024 35.9251C2.024 35.9303 2.024 35.9356 2.024 35.9409C2.024 35.9462 2.024 35.9515 2.024 35.9568C2.024 35.9621 2.024 35.9674 2.024 35.9726C2.024 35.9779 2.024 35.9832 2.024 35.9885C2.024 35.9938 2.024 35.9991 2.024 36.0044C2.024 36.0097 2.024 36.015 2.024 36.0203C2.024 36.0256 2.024 36.0308 2.024 36.0361C2.024 36.0414 2.024 36.0467 2.024 36.052C2.024 36.0573 2.024 36.0626 2.024 36.0679C2.024 36.0732 2.024 36.0785 2.024 36.0838C2.024 36.0891 2.024 36.0944 2.024 36.0996C2.024 36.1049 2.024 36.1102 2.024 36.1155C2.024 36.1208 2.024 36.1261 2.024 36.1314C2.024 36.1367 2.024 36.142 2.024 36.1473C2.024 36.1526 2.024 36.1579 2.024 36.1632C2.024 36.1685 2.024 36.1738 2.024 36.1791C2.024 36.1844 2.024 36.1897 2.024 36.195C2.024 36.2003 2.024 36.2056 2.024 36.2109C2.024 36.2162 2.024 36.2215 2.024 36.2268C2.024 36.2321 2.024 36.2374 2.024 36.2427C2.024 36.248 2.024 36.2533 2.024 36.2586C2.024 36.2639 2.024 36.2692 2.024 36.2745C2.024 36.2798 2.024 36.2851 2.024 36.2904C2.024 36.2957 2.024 36.301 2.024 36.3063C2.024 36.3116 2.024 36.3169 2.024 36.3222C2.024 36.3275 2.024 36.3328 2.024 36.3382C2.024 36.3435 2.024 36.3488 2.024 36.3541C2.024 36.3594 2.024 36.3647 2.024 36.37C2.024 36.3753 2.024 36.3806 2.024 36.3859C2.024 36.3912 2.024 36.3965 2.024 36.4018C2.024 36.4072 2.024 36.4125 2.024 36.4178C2.024 36.4231 2.024 36.4284 2.024 36.4337C2.024 36.439 2.024 36.4443 2.024 36.4496C2.024 36.4549 2.024 36.4603 2.024 36.4656C2.024 36.4709 2.024 36.4762 2.024 36.4815C2.024 36.4868 2.024 36.4921 2.024 36.4974C2.024 36.5027 2.024 36.5081 2.024 36.5134C2.024 36.5187 2.024 36.524 2.024 36.5293C2.024 36.5346 2.024 36.5399 2.024 36.5453C2.024 36.5506 2.024 36.5559 2.024 36.5612C2.024 36.5665 2.024 36.5718 2.024 36.5772C2.024 36.5825 2.024 36.5878 2.024 36.5931C2.024 36.5984 2.024 36.6037 2.024 36.6091C2.024 36.6144 2.024 36.6197 2.024 36.625C2.024 36.6303 2.024 36.6357 2.024 36.641C2.024 36.6463 2.024 36.6516 2.024 36.6569C2.024 36.6623 2.024 36.6676 2.024 36.6729C2.024 36.6782 2.024 36.6835 2.024 36.6889C2.024 36.6942 2.024 36.6995 2.024 36.7048C2.024 36.7102 2.024 36.7155 2.024 36.7208C2.024 36.7261 2.024 36.7314 2.024 36.7368C2.024 36.7421 2.024 36.7474 2.024 36.7527C2.024 36.7581 2.024 36.7634 2.024 36.7687C2.024 36.774 2.024 36.7794 2.024 36.7847C2.024 36.79 2.024 36.7953 2.024 36.8007C2.024 36.806 2.024 36.8113 2.024 36.8167C2.024 36.822 2.024 36.8273 2.024 36.8326C2.024 36.838 2.024 36.8433 2.024 36.8486C2.024 36.854 2.024 36.8593 2.024 36.8646C2.024 36.8699 2.024 36.8753 2.024 36.8806C2.024 36.8859 2.024 36.8913 2.024 36.8966C2.024 36.9019 2.024 36.9073 2.024 36.9126C2.024 36.9179 2.024 36.9233 2.024 36.9286C2.024 36.9339 2.024 36.9393 2.024 36.9446C2.024 36.9499 2.024 36.9553 2.024 36.9606C2.024 36.9659 2.024 36.9713 2.024 36.9766C2.024 36.9819 2.024 36.9873 2.024 36.9926C2.024 36.9979 2.024 37.0033 2.024 37.0086C2.024 37.0139 2.024 37.0193 2.024 37.0246C2.024 37.03 2.024 37.0353 2.024 37.0406C2.024 37.046 2.024 37.0513 2.024 37.0566C2.024 37.062 2.024 37.0673 2.024 37.0727C2.024 37.078 2.024 37.0833 2.024 37.0887C2.024 37.094 2.024 37.0994 2.024 37.1047C2.024 37.11 2.024 37.1154 2.024 37.1207C2.024 37.1261 2.024 37.1314 2.024 37.1367C2.024 37.1421 2.024 37.1474 2.024 37.1528C2.024 37.1581 2.024 37.1635 2.024 37.1688C2.024 37.1742 2.024 37.1795 2.024 37.1848C2.024 37.1902 2.024 37.1955 2.024 37.2009C2.024 37.2062 2.024 37.2116 2.024 37.2169C2.024 37.2223 2.024 37.2276 2.024 37.233C2.024 37.2383 2.024 37.2436 2.024 37.249C2.024 37.2543 2.024 37.2597 2.024 37.265C2.024 37.2704 2.024 37.2757 2.024 37.2811C2.024 37.2864 2.024 37.2918 2.024 37.2971C2.024 37.3025 2.024 37.3078 2.024 37.3132C2.024 37.3185 2.024 37.3239 2.024 37.3292C2.024 37.3346 2.024 37.3399 2.024 37.3453C2.024 37.3506 2.024 37.356 2.024 37.3613C2.024 37.3667 2.024 37.372 2.024 37.3774C2.024 37.3828 2.024 37.3881 2.024 37.3935C2.024 37.3988 2.024 37.4042 2.024 37.4095C2.024 37.4149 2.024 37.4202 2.024 37.4256C2.024 37.4309 2.024 37.4363 2.024 37.4417C2.024 37.447 2.024 37.4524 2.024 37.4577C2.024 37.4631 2.024 37.4684 2.024 37.4738C2.024 37.4792 2.024 37.4845 2.024 37.4899C2.024 37.4952 2.024 37.5006 2.024 37.506C2.024 37.5113 2.024 37.5167 2.024 37.522C2.024 37.5274 2.024 37.5328 2.024 37.5381C2.024 37.5435 2.024 37.5488 2.024 37.5542C2.024 37.5596 2.024 37.5649 2.024 37.5703C2.024 37.5756 2.024 37.581 2.024 37.5864C2.024 37.5917 2.024 37.5971 2.024 37.6025C2.024 37.6078 2.024 37.6132 2.024 37.6185C2.024 37.6239 2.024 37.6293 2.024 37.6346C2.024 37.64 2.024 37.6454 2.024 37.6507C2.024 37.6561 2.024 37.6615 2.024 37.6668C2.024 37.6722 2.024 37.6776 2.024 37.6829C2.024 37.6883 2.024 37.6937 2.024 37.699C2.024 37.7044 2.024 37.7098 2.024 37.7151C2.024 37.7205 2.024 37.7259 2.024 37.7312C2.024 37.7366 2.024 37.742 2.024 37.7474C2.024 37.7527 2.024 37.7581 2.024 37.7635C2.024 37.7688 2.024 37.7742 2.024 37.7796C2.024 37.785 2.024 37.7903 2.024 37.7957C2.024 37.8011 2.024 37.8064 2.024 37.8118C2.024 37.8172 2.024 37.8226 2.024 37.8279C2.024 37.8333 2.024 37.8387 2.024 37.8441C2.024 37.8494 2.024 37.8548 2.024 37.8602C2.024 37.8656 2.024 37.8709 2.024 37.8763C2.024 37.8817 2.024 37.8871 2.024 37.8924C2.024 37.8978 2.024 37.9032 2.024 37.9086C2.024 37.9139 2.024 37.9193 2.024 37.9247C2.024 37.9301 2.024 37.9355 2.024 37.9408C2.024 37.9462 2.024 37.9516 2.024 37.957C2.024 37.9624 2.024 37.9677 2.024 37.9731C2.024 37.9785 2.024 37.9839 2.024 37.9893C2.024 37.9946 2.024 38 2.024 38.0054C2.024 38.0108 2.024 38.0162 2.024 38.0216C2.024 38.0269 2.024 38.0323 2.024 38.0377C2.024 38.0431 2.024 38.0485 2.024 38.0539C2.024 38.0592 2.024 38.0646 2.024 38.07C2.024 38.0754 2.024 38.0808 2.024 38.0862C2.024 38.0915 2.024 38.0969 2.024 38.1023C2.024 38.1077 2.024 38.1131 2.024 38.1185C2.024 38.1239 2.024 38.1292 2.024 38.1346C2.024 38.14 2.024 38.1454 2.024 38.1508C2.024 38.1562 2.024 38.1616 2.024 38.167C2.024 38.1724 2.024 38.1777 2.024 38.1831C2.024 38.1885 2.024 38.1939 2.024 38.1993C2.024 38.2047 2.024 38.2101 2.024 38.2155C2.024 38.2209 2.024 38.2263 2.024 38.2317C2.024 38.2371 2.024 38.2424 2.024 38.2478C2.024 38.2532 2.024 38.2586 2.024 38.264C2.024 38.2694 2.024 38.2748 2.024 38.2802C2.024 38.2856 2.024 38.291 2.024 38.2964C2.024 38.3018 2.024 38.3072 2.024 38.3126C2.024 38.318 2.024 38.3234 2.024 38.3288C2.024 38.3342 2.024 38.3395 2.024 38.3449C2.024 38.3503 2.024 38.3557 2.024 38.3611C2.024 38.3665 2.024 38.3719 2.024 38.3773C2.024 38.3827 2.024 38.3881 2.024 38.3935C2.024 38.3989 2.024 38.4043 2.024 38.4097C2.024 38.4151 2.024 38.4205 2.024 38.4259C2.024 38.4313 2.024 38.4367 2.024 38.4421C2.024 38.4475 2.024 38.4529 2.024 38.4583C2.024 38.4637 2.024 38.4691 2.024 38.4745C2.024 38.4799 2.024 38.4854 2.024 38.4908C2.024 38.4962 2.024 38.5016 2.024 38.507C2.024 38.5124 2.024 38.5178 2.024 38.5232C2.024 38.5286 2.024 38.534 2.024 38.5394C2.024 38.5448 2.024 38.5502 2.024 38.5556C2.024 38.561 2.024 38.5664 2.024 38.5718C2.024 38.5773 2.024 38.5827 2.024 38.5881C2.024 38.5935 2.024 38.5989 2.024 38.6043C2.024 38.6097 2.024 38.6151 2.024 38.6205C2.024 38.6259 2.024 38.6313 2.024 38.6367C2.024 38.6422 2.024 38.6476 2.024 38.653C2.024 38.6584 2.024 38.6638 2.024 38.6692C2.024 38.6746 2.024 38.68 2.024 38.6855C2.024 38.6909 2.024 38.6963 2.024 38.7017C2.024 38.7071 2.024 38.7125 2.024 38.7179C2.024 38.7234 2.024 38.7288 2.024 38.7342C2.024 38.7396 2.024 38.745 2.024 38.7504C2.024 38.7558 2.024 38.7613 2.024 38.7667C2.024 38.7721 2.024 38.7775 2.024 38.7829C2.024 38.7883 2.024 38.7938 2.024 38.7992C2.024 38.8046 2.024 38.81 2.024 38.8154C2.024 38.8208 2.024 38.8263 2.024 38.8317C2.024 38.8371 2.024 38.8425 2.024 38.8479C2.024 38.8534 2.024 38.8588 2.024 38.8642C2.024 38.8696 2.024 38.875 2.024 38.8805C2.024 38.8859 2.024 38.8913 2.024 38.8967C2.024 38.9022 2.024 38.9076 2.024 38.913C2.024 38.9184 2.024 38.9238 2.024 38.9293C2.024 38.9347 2.024 38.9401 2.024 38.9455C2.024 38.951 2.024 38.9564 2.024 38.9618C2.024 38.9672 2.024 38.9727 2.024 38.9781C2.024 38.9835 2.024 38.9889 2.024 38.9944C2.024 38.9998 2.024 39.0052 2.024 39.0107C2.024 39.0161 2.024 39.0215 2.024 39.0269C2.024 39.0324 2.024 39.0378 2.024 39.0432C2.024 39.0486 2.024 39.0541 2.024 39.0595C2.024 39.0649 2.024 39.0704 2.024 39.0758C2.024 39.0812 2.024 39.0867 2.024 39.0921C2.024 39.0975 2.024 39.103 2.024 39.1084C2.024 39.1138 2.024 39.1192 2.024 39.1247C2.024 39.1301 2.024 39.1355 2.024 39.141C2.024 39.1464 2.024 39.1518 2.024 39.1573C2.024 39.1627 2.024 39.1681 2.024 39.1736C2.024 39.179 2.024 39.1844 2.024 39.1899C2.024 39.1953 2.024 39.2008 2.024 39.2062C2.024 39.2116 2.024 39.2171 2.024 39.2225C2.024 39.2279 2.024 39.2334 2.024 39.2388C2.024 39.2442 2.024 39.2497 2.024 39.2551C2.024 39.2606 2.024 39.266 2.024 39.2714C2.024 39.2769 2.024 39.2823 2.024 39.2878C2.024 39.2932 2.024 39.2986 2.024 39.3041C2.024 39.3095 2.024 39.315 2.024 39.3204C2.024 39.3258 2.024 39.3313 2.024 39.3367C2.024 39.3422 2.024 39.3476 2.024 39.3531C2.024 39.3585 2.024 39.3639 2.024 39.3694C2.024 39.3748 2.024 39.3803 2.024 39.3857C2.024 39.3912 2.024 39.3966 2.024 39.402C2.024 39.4075 2.024 39.4129 2.024 39.4184C2.024 39.4238 2.024 39.4293 2.024 39.4347C2.024 39.4402 2.024 39.4456 2.024 39.4511C2.024 39.4565 2.024 39.462 2.024 39.4674C2.024 39.4728 2.024 39.4783 2.024 39.4837C2.024 39.4892 2.024 39.4946 2.024 39.5001C2.024 39.5055 2.024 39.511 2.024 39.5164C2.024 39.5219 2.024 39.5273 2.024 39.5328C2.024 39.5382 2.024 39.5437 2.024 39.5491C2.024 39.5546 2.024 39.5601 2.024 39.5655C2.024 39.571 2.024 39.5764 2.024 39.5819C2.024 39.5873 2.024 39.5928 2.024 39.5982C2.024 39.6037 2.024 39.6091 2.024 39.6146C2.024 39.62 2.024 39.6255 2.024 39.6309C2.024 39.6364 2.024 39.6419 2.024 39.6473C2.024 39.6528 2.024 39.6582 2.024 39.6637C2.024 39.6691 2.024 39.6746 2.024 39.68C2.024 39.6855 2.024 39.691 2.024 39.6964C2.024 39.7019 2.024 39.7073 2.024 39.7128C2.024 39.7183 2.024 39.7237 2.024 39.7292C2.024 39.7346 2.024 39.7401 2.024 39.7456C2.024 39.751 2.024 39.7565 2.024 39.7619C2.024 39.7674 2.024 39.7729 2.024 39.7783C2.024 39.7838 2.024 39.7892 2.024 39.7947C2.024 39.8002 2.024 39.8056 2.024 39.8111C2.024 39.8166 2.024 39.822 2.024 39.8275C2.024 39.8329 2.024 39.8384 2.024 39.8439C2.024 39.8493 2.024 39.8548 2.024 39.8603C2.024 39.8657 2.024 39.8712 2.024 39.8767C2.024 39.8821 2.024 39.8876 2.024 39.8931C2.024 39.8985 2.024 39.904 2.024 39.9095C2.024 39.9149 2.024 39.9204 2.024 39.9259C2.024 39.9313 2.024 39.9368 2.024 39.9423C2.024 39.9477 2.024 39.9532 2.024 39.9587C2.024 39.9642 2.024 39.9696 2.024 39.9751C2.024 39.9806 2.024 39.986 2.024 39.9915C2.024 39.997 2.024 40.0024 2.024 40.0079C2.024 40.0134 2.024 40.0189 2.024 40.0243C2.024 40.0298 2.024 40.0353 2.024 40.0408C2.024 40.0462 2.024 40.0517 2.024 40.0572C2.024 40.0627 2.024 40.0681 2.024 40.0736C2.024 40.0791 2.024 40.0846 2.024 40.09C2.024 40.0955 2.024 40.101 2.024 40.1065C2.024 40.1119 2.024 40.1174 2.024 40.1229C2.024 40.1284 2.024 40.1338 2.024 40.1393C2.024 40.1448 2.024 40.1503 2.024 40.1558C2.024 40.1612 2.024 40.1667 2.024 40.1722C2.024 40.1777 2.024 40.1832 2.024 40.1886C2.024 40.1941 2.024 40.1996 2.024 40.2051C2.024 40.2105 2.024 40.216 2.024 40.2215C2.024 40.227 2.024 40.2325 2.024 40.238C2.024 40.2434 2.024 40.2489 2.024 40.2544C2.024 40.2599 2.024 40.2654 2.024 40.2709C2.024 40.2763 2.024 40.2818 2.024 40.2873C2.024 40.2928 2.024 40.2983 2.024 40.3038C2.024 40.3092 2.024 40.3147 2.024 40.3202C2.024 40.3257 2.024 40.3312 2.024 40.3367C2.024 40.3422 2.024 40.3476 2.024 40.3531C2.024 40.3586 2.024 40.3641 2.024 40.3696C2.024 40.3751 2.024 40.3806 2.024 40.3861C2.024 40.3916 2.024 40.397 2.024 40.4025C2.024 40.408 2.024 40.4135 2.024 40.419C2.024 40.4245 2.024 40.43 2.024 40.4355C2.024 40.441 2.024 40.4465 2.024 40.452C2.024 40.4574 2.024 40.4629 2.024 40.4684C2.024 40.4739 2.024 40.4794 2.024 40.4849C2.024 40.4904 2.024 40.4959 2.024 40.5014C2.024 40.5069 2.024 40.5124 2.024 40.5179C2.024 40.5234 2.024 40.5289 2.024 40.5344C2.024 40.5398 2.024 40.5453 2.024 40.5508C2.024 40.5563 2.024 40.5618 2.024 40.5673C2.024 40.5728 2.024 40.5783 2.024 40.5838C2.024 40.5893 2.024 40.5948 2.024 40.6003C2.024 40.6058 2.024 40.6113 2.024 40.6168C2.024 40.6223 2.024 40.6278 2.024 40.6333C2.024 40.6388 2.024 40.6443 2.024 40.6498C2.024 40.6553 2.024 40.6608 2.024 40.6663C2.024 40.6718 2.024 40.6773 2.024 40.6828C2.024 40.6883 2.024 40.6938 2.024 40.6993C2.024 40.7048 2.024 40.7103 2.024 40.7158C2.024 40.7213 2.024 40.7268 2.024 40.7323C2.024 40.7378 2.024 40.7434 2.024 40.7489C2.024 40.7544 2.024 40.7599 2.024 40.7654C2.024 40.7709 2.024 40.7764 2.024 40.7819C2.024 40.7874 2.024 40.7929 2.024 40.7984C2.024 40.8039 2.024 40.8094 2.024 40.8149C2.024 40.8204 2.024 40.826 2.024 40.8315C2.024 40.837 2.024 40.8425 2.024 40.848C2.024 40.8535 2.024 40.859 2.024 40.8645C2.024 40.87 2.024 40.8755 2.024 40.881C2.024 40.8866 2.024 40.8921 2.024 40.8976C2.024 40.9031 2.024 40.9086 2.024 40.9141C2.024 40.9196 2.024 40.9251 2.024 40.9306C2.024 40.9362 2.024 40.9417 2.024 40.9472C2.024 40.9527 2.024 40.9582 2.024 40.9637C2.024 40.9692 2.024 40.9748 2.024 40.9803C2.024 40.9858 2.024 40.9913 2.024 40.9968C2.024 41.0023 2.024 41.0079 2.024 41.0134C2.024 41.0189 2.024 41.0244 2.024 41.0299C2.024 41.0354 2.024 41.041 2.024 41.0465C2.024 41.052 2.024 41.0575 2.024 41.063C2.024 41.0686 2.024 41.0741 2.024 41.0796C2.024 41.0851 2.024 41.0906 2.024 41.0962C2.024 41.1017 2.024 41.1072 2.024 41.1127C2.024 41.1182 2.024 41.1238 2.024 41.1293C2.024 41.1348 2.024 41.1403 2.024 41.1458C2.024 41.1514 2.024 41.1569 2.024 41.1624C2.024 41.1679 2.024 41.1735 2.024 41.179C2.024 41.1845 2.024 41.19 2.024 41.1956C2.024 41.2011 2.024 41.2066 2.024 41.2121C2.024 41.2177 2.024 41.2232 2.024 41.2287C2.024 41.2342 2.024 41.2398 2.024 41.2453C2.024 41.2508 2.024 41.2563 2.024 41.2619C2.024 41.2674 2.024 41.2729 2.024 41.2785C2.024 41.284 2.024 41.2895 2.024 41.295C2.024 41.3006 2.024 41.3061 2.024 41.3116C2.024 41.3172 2.024 41.3227 2.024 41.3282C2.024 41.3337 2.024 41.3393 2.024 41.3448C2.024 41.3503 2.024 41.3559 2.024 41.3614C2.024 41.3669 2.024 41.3725 2.024 41.378C2.024 41.3835 2.024 41.3891 2.024 41.3946C2.024 41.4001 2.024 41.4057 2.024 41.4112C2.024 41.4167 2.024 41.4223 2.024 41.4278C2.024 41.4333 2.024 41.4389 2.024 41.4444C2.024 41.4499 2.024 41.4555 2.024 41.461C2.024 41.4666 2.024 41.4721 2.024 41.4776C2.024 41.4832 2.024 41.4887 2.024 41.4942C2.024 41.4998 2.024 41.5053 2.024 41.5109C2.024 41.5164 2.024 41.5219 2.024 41.5275C2.024 41.533 2.024 41.5386 2.024 41.5441C2.024 41.5496 2.024 41.5552 2.024 41.5607C2.024 41.5663 2.024 41.5718 2.024 41.5773C2.024 41.5829 2.024 41.5884 2.024 41.594C2.024 41.5995 2.024 41.605 2.024 41.6106C2.024 41.6161 2.024 41.6217 2.024 41.6272C2.024 41.6328 2.024 41.6383 2.024 41.6439C2.024 41.6494 2.024 41.6549 2.024 41.6605C2.024 41.666 2.024 41.6716 2.024 41.6771C2.024 41.6827 2.024 41.6882 2.024 41.6938C2.024 41.6993 2.024 41.7049 2.024 41.7104C2.024 41.716 2.024 41.7215 2.024 41.727C2.024 41.7326 2.024 41.7381 2.024 41.7437C2.024 41.7492 2.024 41.7548 2.024 41.7603C2.024 41.7659 2.024 41.7714 2.024 41.777C2.024 41.7825 2.024 41.7881 2.024 41.7936C2.024 41.7992 2.024 41.8047 2.024 41.8103C2.024 41.8158 2.024 41.8214 2.024 41.827C2.024 41.8325 2.024 41.8381 2.024 41.8436C2.024 41.8492 2.024 41.8547 2.024 41.8603C2.024 41.8658 2.024 41.8714 2.024 41.8769C2.024 41.8825 2.024 41.888 2.024 41.8936C2.024 41.8992 2.024 41.9047 2.024 41.9103C2.024 41.9158 2.024 41.9214 2.024 41.9269C2.024 41.9325 2.024 41.938 2.024 41.9436C2.024 41.9492 2.024 41.9547 2.024 41.9603C2.024 41.9658 2.024 41.9714 2.024 41.977C2.024 41.9825 2.024 41.9881 2.024 41.9936C2.024 41.9992 2.024 42.0048 2.024 42.0103C2.024 42.0159 2.024 42.0214 2.024 42.027C2.024 42.0326 2.024 42.0381 2.024 42.0437C2.024 42.0492 2.024 42.0548 2.024 42.0604C2.024 42.0659 2.024 42.0715 2.024 42.0771C2.024 42.0826 2.024 42.0882 2.024 42.0938C2.024 42.0993 2.024 42.1049 2.024 42.1104C2.024 42.116 2.024 42.1216 2.024 42.1271C2.024 42.1327 2.024 42.1383 2.024 42.1438C2.024 42.1494 2.024 42.155 2.024 42.1605C2.024 42.1661 2.024 42.1717 2.024 42.1772C2.024 42.1828 2.024 42.1884 2.024 42.1939C2.024 42.1995 2.024 42.2051 2.024 42.2107C2.024 42.2162 2.024 42.2218 2.024 42.2274C2.024 42.2329 2.024 42.2385 2.024 42.2441C2.024 42.2496 2.024 42.2552 2.024 42.2608C2.024 42.2664 2.024 42.2719 2.024 42.2775C2.024 42.2831 2.024 42.2887 2.024 42.2942C2.024 42.2998 2.024 42.3054 2.024 42.3109C2.024 42.3165 2.024 42.3221 2.024 42.3277C2.024 42.3332 2.024 42.3388 2.024 42.3444C2.024 42.35 2.024 42.3555 2.024 42.3611C2.024 42.3667 2.024 42.3723 2.024 42.3778C2.024 42.3834 2.024 42.389 2.024 42.3946C2.024 42.4002 2.024 42.4057 2.024 42.4113C2.024 42.4169 2.024 42.4225 2.024 42.428C2.024 42.4336 2.024 42.4392 2.024 42.4448C2.024 42.4504 2.024 42.4559 2.024 42.4615C2.024 42.4671 2.024 42.4727 2.024 42.4783C2.024 42.4838 2.024 42.4894 2.024 42.495C2.024 42.5006 2.024 42.5062 2.024 42.5118C2.024 42.5173 2.024 42.5229 2.024 42.5285C2.024 42.5341 2.024 42.5397 2.024 42.5452C2.024 42.5508 2.024 42.5564 2.024 42.562C2.024 42.5676 2.024 42.5732 2.024 42.5788C2.024 42.5843 2.024 42.5899 2.024 42.5955C2.024 42.6011 2.024 42.6067 2.024 42.6123C2.024 42.6179 2.024 42.6235 2.024 42.629C2.024 42.6346 2.024 42.6402 2.024 42.6458C2.024 42.6514 2.024 42.657 2.024 42.6626C2.024 42.6682 2.024 42.6738 2.024 42.6793C2.024 42.6849 2.024 42.6905 2.024 42.6961C2.024 42.7017 2.024 42.7073 2.024 42.7129C2.024 42.7185 2.024 42.7241 2.024 42.7297C2.024 42.7353 2.024 42.7408 2.024 42.7464C2.024 42.752 2.024 42.7576 2.024 42.7632C2.024 42.7688 2.024 42.7744 2.024 42.78C2.024 42.7856 2.024 42.7912 2.024 42.7968C2.024 42.8024 2.024 42.808 2.024 42.8136C2.024 42.8192 2.024 42.8248 2.024 42.8304C2.024 42.836 2.024 42.8415 2.024 42.8471C2.024 42.8527 2.024 42.8583 2.024 42.8639C2.024 42.8695 2.024 42.8751 2.024 42.8807C2.024 42.8863 2.024 42.8919 2.024 42.8975C2.024 42.9031 2.024 42.9087 2.024 42.9143C2.024 42.9199 2.024 42.9255 2.024 42.9311C2.024 42.9367 2.024 42.9423 2.024 42.9479C2.024 42.9535 2.024 42.9591 2.024 42.9647C2.024 42.9703 2.024 42.9759 2.024 42.9815C2.024 42.9872 2.024 42.9928 2.024 42.9984C2.024 43.004 2.024 43.0096 2.024 43.0152C2.024 43.0208 2.024 43.0264 2.024 43.032C2.024 43.0376 2.024 43.0432 2.024 43.0488C2.024 43.0544 2.024 43.06 2.024 43.0656C2.024 43.0712 2.024 43.0768 2.024 43.0824C2.024 43.0881 2.024 43.0937 2.024 43.0993C2.024 43.1049 2.024 43.1105 2.024 43.1161C2.024 43.1217 2.024 43.1273 2.024 43.1329C2.024 43.1385 2.024 43.1441 2.024 43.1497C2.024 43.1554 2.024 43.161 2.024 43.1666C2.024 43.1722 2.024 43.1778 2.024 43.1834C2.024 43.189 2.024 43.1946 2.024 43.2002C2.024 43.2059 2.024 43.2115 2.024 43.2171C2.024 43.2227 2.024 43.2283 2.024 43.2339C2.024 43.2395 2.024 43.2452 2.024 43.2508C2.024 43.2564 2.024 43.262 2.024 43.2676C2.024 43.2732 2.024 43.2788 2.024 43.2845C2.024 43.2901 2.024 43.2957 2.024 43.3013C2.024 43.3069 2.024 43.3125 2.024 43.3182C2.024 43.3238 2.024 43.3294 2.024 43.335C2.024 43.3406 2.024 43.3463 2.024 43.3519C2.024 43.3575 2.024 43.3631 2.024 43.3687C2.024 43.3744 2.024 43.38 2.024 43.3856C2.024 43.3912 2.024 43.3968 2.024 43.4025C2.024 43.4081 2.024 43.4137 2.024 43.4193C2.024 43.4249 2.024 43.4306 2.024 43.4362C2.024 43.4418 2.024 43.4474 2.024 43.4531C2.024 43.4587 2.024 43.4643 2.024 43.4699C2.024 43.4756 2.024 43.4812 2.024 43.4868H4.024ZM4.02341 35.1693C4.11934 32.3872 4.21525 29.8456 4.31113 27.5444L2.31287 27.4612C2.21675 29.768 2.12066 32.3144 2.02459 35.1003L4.02341 35.1693ZM4.31173 27.5261C4.5023 19.3317 5.7904 13.3409 8.06451 9.42942L6.33549 8.42419C3.8096 12.7687 2.5057 19.1619 2.31227 27.4796L4.31173 27.5261ZM8.06946 9.42081C10.229 5.61998 14.3237 3.59081 20.736 3.59081V1.59081C13.9003 1.59081 8.97098 3.78564 6.33054 8.4328L8.06946 9.42081ZM19.7626 2.81985L21.4906 10.1638L23.4374 9.70577L21.7094 2.36177L19.7626 2.81985ZM22.4384 8.93514C18.4982 9.03617 15.6252 10.375 14.3487 13.2761L16.1793 14.0815C17.0148 12.1826 18.9418 11.0255 22.4896 10.9345L22.4384 8.93514ZM14.3487 13.2761C13.2183 15.8451 12.68 19.067 12.68 22.8948H14.68C14.68 19.2346 15.1977 16.3125 16.1793 14.0815L14.3487 13.2761ZM13.68 23.8948H23.616V21.8948H13.68V23.8948ZM22.616 22.8948V43.4868H24.616V22.8948H22.616ZM23.616 42.4868H3.024V44.4868H23.616V42.4868ZM33.4 43.4868C33.4 43.4812 33.4 43.4756 33.4 43.4699C33.4 43.4643 33.4 43.4587 33.4 43.4531C33.4 43.4474 33.4 43.4418 33.4 43.4362C33.4 43.4306 33.4 43.4249 33.4 43.4193C33.4 43.4137 33.4 43.4081 33.4 43.4025C33.4 43.3968 33.4 43.3912 33.4 43.3856C33.4 43.38 33.4 43.3744 33.4 43.3687C33.4 43.3631 33.4 43.3575 33.4 43.3519C33.4 43.3463 33.4 43.3406 33.4 43.335C33.4 43.3294 33.4 43.3238 33.4 43.3182C33.4 43.3125 33.4 43.3069 33.4 43.3013C33.4 43.2957 33.4 43.2901 33.4 43.2845C33.4 43.2788 33.4 43.2732 33.4 43.2676C33.4 43.262 33.4 43.2564 33.4 43.2508C33.4 43.2452 33.4 43.2395 33.4 43.2339C33.4 43.2283 33.4 43.2227 33.4 43.2171C33.4 43.2115 33.4 43.2059 33.4 43.2002C33.4 43.1946 33.4 43.189 33.4 43.1834C33.4 43.1778 33.4 43.1722 33.4 43.1666C33.4 43.161 33.4 43.1554 33.4 43.1497C33.4 43.1441 33.4 43.1385 33.4 43.1329C33.4 43.1273 33.4 43.1217 33.4 43.1161C33.4 43.1105 33.4 43.1049 33.4 43.0993C33.4 43.0937 33.4 43.0881 33.4 43.0824C33.4 43.0768 33.4 43.0712 33.4 43.0656C33.4 43.06 33.4 43.0544 33.4 43.0488C33.4 43.0432 33.4 43.0376 33.4 43.032C33.4 43.0264 33.4 43.0208 33.4 43.0152C33.4 43.0096 33.4 43.004 33.4 42.9984C33.4 42.9928 33.4 42.9872 33.4 42.9815C33.4 42.9759 33.4 42.9703 33.4 42.9647C33.4 42.9591 33.4 42.9535 33.4 42.9479C33.4 42.9423 33.4 42.9367 33.4 42.9311C33.4 42.9255 33.4 42.9199 33.4 42.9143C33.4 42.9087 33.4 42.9031 33.4 42.8975C33.4 42.8919 33.4 42.8863 33.4 42.8807C33.4 42.8751 33.4 42.8695 33.4 42.8639C33.4 42.8583 33.4 42.8527 33.4 42.8471C33.4 42.8415 33.4 42.836 33.4 42.8304C33.4 42.8248 33.4 42.8192 33.4 42.8136C33.4 42.808 33.4 42.8024 33.4 42.7968C33.4 42.7912 33.4 42.7856 33.4 42.78C33.4 42.7744 33.4 42.7688 33.4 42.7632C33.4 42.7576 33.4 42.752 33.4 42.7464C33.4 42.7408 33.4 42.7353 33.4 42.7297C33.4 42.7241 33.4 42.7185 33.4 42.7129C33.4 42.7073 33.4 42.7017 33.4 42.6961C33.4 42.6905 33.4 42.6849 33.4 42.6793C33.4 42.6738 33.4 42.6682 33.4 42.6626C33.4 42.657 33.4 42.6514 33.4 42.6458C33.4 42.6402 33.4 42.6346 33.4 42.629C33.4 42.6235 33.4 42.6179 33.4 42.6123C33.4 42.6067 33.4 42.6011 33.4 42.5955C33.4 42.5899 33.4 42.5843 33.4 42.5788C33.4 42.5732 33.4 42.5676 33.4 42.562C33.4 42.5564 33.4 42.5508 33.4 42.5452C33.4 42.5397 33.4 42.5341 33.4 42.5285C33.4 42.5229 33.4 42.5173 33.4 42.5118C33.4 42.5062 33.4 42.5006 33.4 42.495C33.4 42.4894 33.4 42.4838 33.4 42.4783C33.4 42.4727 33.4 42.4671 33.4 42.4615C33.4 42.4559 33.4 42.4504 33.4 42.4448C33.4 42.4392 33.4 42.4336 33.4 42.428C33.4 42.4225 33.4 42.4169 33.4 42.4113C33.4 42.4057 33.4 42.4002 33.4 42.3946C33.4 42.389 33.4 42.3834 33.4 42.3778C33.4 42.3723 33.4 42.3667 33.4 42.3611C33.4 42.3555 33.4 42.35 33.4 42.3444C33.4 42.3388 33.4 42.3332 33.4 42.3277C33.4 42.3221 33.4 42.3165 33.4 42.3109C33.4 42.3054 33.4 42.2998 33.4 42.2942C33.4 42.2887 33.4 42.2831 33.4 42.2775C33.4 42.2719 33.4 42.2664 33.4 42.2608C33.4 42.2552 33.4 42.2496 33.4 42.2441C33.4 42.2385 33.4 42.2329 33.4 42.2274C33.4 42.2218 33.4 42.2162 33.4 42.2107C33.4 42.2051 33.4 42.1995 33.4 42.1939C33.4 42.1884 33.4 42.1828 33.4 42.1772C33.4 42.1717 33.4 42.1661 33.4 42.1605C33.4 42.155 33.4 42.1494 33.4 42.1438C33.4 42.1383 33.4 42.1327 33.4 42.1271C33.4 42.1216 33.4 42.116 33.4 42.1104C33.4 42.1049 33.4 42.0993 33.4 42.0938C33.4 42.0882 33.4 42.0826 33.4 42.0771C33.4 42.0715 33.4 42.0659 33.4 42.0604C33.4 42.0548 33.4 42.0492 33.4 42.0437C33.4 42.0381 33.4 42.0326 33.4 42.027C33.4 42.0214 33.4 42.0159 33.4 42.0103C33.4 42.0048 33.4 41.9992 33.4 41.9936C33.4 41.9881 33.4 41.9825 33.4 41.977C33.4 41.9714 33.4 41.9658 33.4 41.9603C33.4 41.9547 33.4 41.9492 33.4 41.9436C33.4 41.938 33.4 41.9325 33.4 41.9269C33.4 41.9214 33.4 41.9158 33.4 41.9103C33.4 41.9047 33.4 41.8992 33.4 41.8936C33.4 41.888 33.4 41.8825 33.4 41.8769C33.4 41.8714 33.4 41.8658 33.4 41.8603C33.4 41.8547 33.4 41.8492 33.4 41.8436C33.4 41.8381 33.4 41.8325 33.4 41.827C33.4 41.8214 33.4 41.8158 33.4 41.8103C33.4 41.8047 33.4 41.7992 33.4 41.7936C33.4 41.7881 33.4 41.7825 33.4 41.777C33.4 41.7714 33.4 41.7659 33.4 41.7603C33.4 41.7548 33.4 41.7492 33.4 41.7437C33.4 41.7381 33.4 41.7326 33.4 41.727C33.4 41.7215 33.4 41.716 33.4 41.7104C33.4 41.7049 33.4 41.6993 33.4 41.6938C33.4 41.6882 33.4 41.6827 33.4 41.6771C33.4 41.6716 33.4 41.666 33.4 41.6605C33.4 41.6549 33.4 41.6494 33.4 41.6439C33.4 41.6383 33.4 41.6328 33.4 41.6272C33.4 41.6217 33.4 41.6161 33.4 41.6106C33.4 41.605 33.4 41.5995 33.4 41.594C33.4 41.5884 33.4 41.5829 33.4 41.5773C33.4 41.5718 33.4 41.5663 33.4 41.5607C33.4 41.5552 33.4 41.5496 33.4 41.5441C33.4 41.5386 33.4 41.533 33.4 41.5275C33.4 41.5219 33.4 41.5164 33.4 41.5109C33.4 41.5053 33.4 41.4998 33.4 41.4942C33.4 41.4887 33.4 41.4832 33.4 41.4776C33.4 41.4721 33.4 41.4666 33.4 41.461C33.4 41.4555 33.4 41.4499 33.4 41.4444C33.4 41.4389 33.4 41.4333 33.4 41.4278C33.4 41.4223 33.4 41.4167 33.4 41.4112C33.4 41.4057 33.4 41.4001 33.4 41.3946C33.4 41.3891 33.4 41.3835 33.4 41.378C33.4 41.3725 33.4 41.3669 33.4 41.3614C33.4 41.3559 33.4 41.3503 33.4 41.3448C33.4 41.3393 33.4 41.3337 33.4 41.3282C33.4 41.3227 33.4 41.3172 33.4 41.3116C33.4 41.3061 33.4 41.3006 33.4 41.295C33.4 41.2895 33.4 41.284 33.4 41.2785C33.4 41.2729 33.4 41.2674 33.4 41.2619C33.4 41.2563 33.4 41.2508 33.4 41.2453C33.4 41.2398 33.4 41.2342 33.4 41.2287C33.4 41.2232 33.4 41.2177 33.4 41.2121C33.4 41.2066 33.4 41.2011 33.4 41.1956C33.4 41.19 33.4 41.1845 33.4 41.179C33.4 41.1735 33.4 41.1679 33.4 41.1624C33.4 41.1569 33.4 41.1514 33.4 41.1458C33.4 41.1403 33.4 41.1348 33.4 41.1293C33.4 41.1238 33.4 41.1182 33.4 41.1127C33.4 41.1072 33.4 41.1017 33.4 41.0962C33.4 41.0906 33.4 41.0851 33.4 41.0796C33.4 41.0741 33.4 41.0686 33.4 41.063C33.4 41.0575 33.4 41.052 33.4 41.0465C33.4 41.041 33.4 41.0354 33.4 41.0299C33.4 41.0244 33.4 41.0189 33.4 41.0134C33.4 41.0079 33.4 41.0023 33.4 40.9968C33.4 40.9913 33.4 40.9858 33.4 40.9803C33.4 40.9748 33.4 40.9692 33.4 40.9637C33.4 40.9582 33.4 40.9527 33.4 40.9472C33.4 40.9417 33.4 40.9362 33.4 40.9306C33.4 40.9251 33.4 40.9196 33.4 40.9141C33.4 40.9086 33.4 40.9031 33.4 40.8976C33.4 40.8921 33.4 40.8866 33.4 40.881C33.4 40.8755 33.4 40.87 33.4 40.8645C33.4 40.859 33.4 40.8535 33.4 40.848C33.4 40.8425 33.4 40.837 33.4 40.8315C33.4 40.826 33.4 40.8204 33.4 40.8149C33.4 40.8094 33.4 40.8039 33.4 40.7984C33.4 40.7929 33.4 40.7874 33.4 40.7819C33.4 40.7764 33.4 40.7709 33.4 40.7654C33.4 40.7599 33.4 40.7544 33.4 40.7489C33.4 40.7434 33.4 40.7378 33.4 40.7323C33.4 40.7268 33.4 40.7213 33.4 40.7158C33.4 40.7103 33.4 40.7048 33.4 40.6993C33.4 40.6938 33.4 40.6883 33.4 40.6828C33.4 40.6773 33.4 40.6718 33.4 40.6663C33.4 40.6608 33.4 40.6553 33.4 40.6498C33.4 40.6443 33.4 40.6388 33.4 40.6333C33.4 40.6278 33.4 40.6223 33.4 40.6168C33.4 40.6113 33.4 40.6058 33.4 40.6003C33.4 40.5948 33.4 40.5893 33.4 40.5838C33.4 40.5783 33.4 40.5728 33.4 40.5673C33.4 40.5618 33.4 40.5563 33.4 40.5508C33.4 40.5453 33.4 40.5398 33.4 40.5344C33.4 40.5289 33.4 40.5234 33.4 40.5179C33.4 40.5124 33.4 40.5069 33.4 40.5014C33.4 40.4959 33.4 40.4904 33.4 40.4849C33.4 40.4794 33.4 40.4739 33.4 40.4684C33.4 40.4629 33.4 40.4574 33.4 40.452C33.4 40.4465 33.4 40.441 33.4 40.4355C33.4 40.43 33.4 40.4245 33.4 40.419C33.4 40.4135 33.4 40.408 33.4 40.4025C33.4 40.397 33.4 40.3916 33.4 40.3861C33.4 40.3806 33.4 40.3751 33.4 40.3696C33.4 40.3641 33.4 40.3586 33.4 40.3531C33.4 40.3476 33.4 40.3422 33.4 40.3367C33.4 40.3312 33.4 40.3257 33.4 40.3202C33.4 40.3147 33.4 40.3092 33.4 40.3038C33.4 40.2983 33.4 40.2928 33.4 40.2873C33.4 40.2818 33.4 40.2763 33.4 40.2709C33.4 40.2654 33.4 40.2599 33.4 40.2544C33.4 40.2489 33.4 40.2434 33.4 40.238C33.4 40.2325 33.4 40.227 33.4 40.2215C33.4 40.216 33.4 40.2105 33.4 40.2051C33.4 40.1996 33.4 40.1941 33.4 40.1886C33.4 40.1832 33.4 40.1777 33.4 40.1722C33.4 40.1667 33.4 40.1612 33.4 40.1558C33.4 40.1503 33.4 40.1448 33.4 40.1393C33.4 40.1338 33.4 40.1284 33.4 40.1229C33.4 40.1174 33.4 40.1119 33.4 40.1065C33.4 40.101 33.4 40.0955 33.4 40.09C33.4 40.0846 33.4 40.0791 33.4 40.0736C33.4 40.0681 33.4 40.0627 33.4 40.0572C33.4 40.0517 33.4 40.0462 33.4 40.0408C33.4 40.0353 33.4 40.0298 33.4 40.0243C33.4 40.0189 33.4 40.0134 33.4 40.0079C33.4 40.0024 33.4 39.997 33.4 39.9915C33.4 39.986 33.4 39.9806 33.4 39.9751C33.4 39.9696 33.4 39.9642 33.4 39.9587C33.4 39.9532 33.4 39.9477 33.4 39.9423C33.4 39.9368 33.4 39.9313 33.4 39.9259C33.4 39.9204 33.4 39.9149 33.4 39.9095C33.4 39.904 33.4 39.8985 33.4 39.8931C33.4 39.8876 33.4 39.8821 33.4 39.8767C33.4 39.8712 33.4 39.8657 33.4 39.8603C33.4 39.8548 33.4 39.8493 33.4 39.8439C33.4 39.8384 33.4 39.8329 33.4 39.8275C33.4 39.822 33.4 39.8166 33.4 39.8111C33.4 39.8056 33.4 39.8002 33.4 39.7947C33.4 39.7892 33.4 39.7838 33.4 39.7783C33.4 39.7729 33.4 39.7674 33.4 39.7619C33.4 39.7565 33.4 39.751 33.4 39.7456C33.4 39.7401 33.4 39.7346 33.4 39.7292C33.4 39.7237 33.4 39.7183 33.4 39.7128C33.4 39.7073 33.4 39.7019 33.4 39.6964C33.4 39.691 33.4 39.6855 33.4 39.68C33.4 39.6746 33.4 39.6691 33.4 39.6637C33.4 39.6582 33.4 39.6528 33.4 39.6473C33.4 39.6419 33.4 39.6364 33.4 39.6309C33.4 39.6255 33.4 39.62 33.4 39.6146C33.4 39.6091 33.4 39.6037 33.4 39.5982C33.4 39.5928 33.4 39.5873 33.4 39.5819C33.4 39.5764 33.4 39.571 33.4 39.5655C33.4 39.5601 33.4 39.5546 33.4 39.5491C33.4 39.5437 33.4 39.5382 33.4 39.5328C33.4 39.5273 33.4 39.5219 33.4 39.5164C33.4 39.511 33.4 39.5055 33.4 39.5001C33.4 39.4946 33.4 39.4892 33.4 39.4837C33.4 39.4783 33.4 39.4728 33.4 39.4674C33.4 39.462 33.4 39.4565 33.4 39.4511C33.4 39.4456 33.4 39.4402 33.4 39.4347C33.4 39.4293 33.4 39.4238 33.4 39.4184C33.4 39.4129 33.4 39.4075 33.4 39.402C33.4 39.3966 33.4 39.3912 33.4 39.3857C33.4 39.3803 33.4 39.3748 33.4 39.3694C33.4 39.3639 33.4 39.3585 33.4 39.3531C33.4 39.3476 33.4 39.3422 33.4 39.3367C33.4 39.3313 33.4 39.3258 33.4 39.3204C33.4 39.315 33.4 39.3095 33.4 39.3041C33.4 39.2986 33.4 39.2932 33.4 39.2878C33.4 39.2823 33.4 39.2769 33.4 39.2714C33.4 39.266 33.4 39.2606 33.4 39.2551C33.4 39.2497 33.4 39.2442 33.4 39.2388C33.4 39.2334 33.4 39.2279 33.4 39.2225C33.4 39.2171 33.4 39.2116 33.4 39.2062C33.4 39.2008 33.4 39.1953 33.4 39.1899C33.4 39.1844 33.4 39.179 33.4 39.1736C33.4 39.1681 33.4 39.1627 33.4 39.1573C33.4 39.1518 33.4 39.1464 33.4 39.141C33.4 39.1355 33.4 39.1301 33.4 39.1247C33.4 39.1192 33.4 39.1138 33.4 39.1084C33.4 39.103 33.4 39.0975 33.4 39.0921C33.4 39.0867 33.4 39.0812 33.4 39.0758C33.4 39.0704 33.4 39.0649 33.4 39.0595C33.4 39.0541 33.4 39.0486 33.4 39.0432C33.4 39.0378 33.4 39.0324 33.4 39.0269C33.4 39.0215 33.4 39.0161 33.4 39.0107C33.4 39.0052 33.4 38.9998 33.4 38.9944C33.4 38.9889 33.4 38.9835 33.4 38.9781C33.4 38.9727 33.4 38.9672 33.4 38.9618C33.4 38.9564 33.4 38.951 33.4 38.9455C33.4 38.9401 33.4 38.9347 33.4 38.9293C33.4 38.9238 33.4 38.9184 33.4 38.913C33.4 38.9076 33.4 38.9022 33.4 38.8967C33.4 38.8913 33.4 38.8859 33.4 38.8805C33.4 38.875 33.4 38.8696 33.4 38.8642C33.4 38.8588 33.4 38.8534 33.4 38.8479C33.4 38.8425 33.4 38.8371 33.4 38.8317C33.4 38.8263 33.4 38.8208 33.4 38.8154C33.4 38.81 33.4 38.8046 33.4 38.7992C33.4 38.7938 33.4 38.7883 33.4 38.7829C33.4 38.7775 33.4 38.7721 33.4 38.7667C33.4 38.7613 33.4 38.7558 33.4 38.7504C33.4 38.745 33.4 38.7396 33.4 38.7342C33.4 38.7288 33.4 38.7234 33.4 38.7179C33.4 38.7125 33.4 38.7071 33.4 38.7017C33.4 38.6963 33.4 38.6909 33.4 38.6855C33.4 38.68 33.4 38.6746 33.4 38.6692C33.4 38.6638 33.4 38.6584 33.4 38.653C33.4 38.6476 33.4 38.6422 33.4 38.6367C33.4 38.6313 33.4 38.6259 33.4 38.6205C33.4 38.6151 33.4 38.6097 33.4 38.6043C33.4 38.5989 33.4 38.5935 33.4 38.5881C33.4 38.5827 33.4 38.5773 33.4 38.5718C33.4 38.5664 33.4 38.561 33.4 38.5556C33.4 38.5502 33.4 38.5448 33.4 38.5394C33.4 38.534 33.4 38.5286 33.4 38.5232C33.4 38.5178 33.4 38.5124 33.4 38.507C33.4 38.5016 33.4 38.4962 33.4 38.4908C33.4 38.4854 33.4 38.4799 33.4 38.4745C33.4 38.4691 33.4 38.4637 33.4 38.4583C33.4 38.4529 33.4 38.4475 33.4 38.4421C33.4 38.4367 33.4 38.4313 33.4 38.4259C33.4 38.4205 33.4 38.4151 33.4 38.4097C33.4 38.4043 33.4 38.3989 33.4 38.3935C33.4 38.3881 33.4 38.3827 33.4 38.3773C33.4 38.3719 33.4 38.3665 33.4 38.3611C33.4 38.3557 33.4 38.3503 33.4 38.3449C33.4 38.3395 33.4 38.3342 33.4 38.3288C33.4 38.3234 33.4 38.318 33.4 38.3126C33.4 38.3072 33.4 38.3018 33.4 38.2964C33.4 38.291 33.4 38.2856 33.4 38.2802C33.4 38.2748 33.4 38.2694 33.4 38.264C33.4 38.2586 33.4 38.2532 33.4 38.2478C33.4 38.2424 33.4 38.2371 33.4 38.2317C33.4 38.2263 33.4 38.2209 33.4 38.2155C33.4 38.2101 33.4 38.2047 33.4 38.1993C33.4 38.1939 33.4 38.1885 33.4 38.1831C33.4 38.1777 33.4 38.1724 33.4 38.167C33.4 38.1616 33.4 38.1562 33.4 38.1508C33.4 38.1454 33.4 38.14 33.4 38.1346C33.4 38.1292 33.4 38.1239 33.4 38.1185C33.4 38.1131 33.4 38.1077 33.4 38.1023C33.4 38.0969 33.4 38.0915 33.4 38.0862C33.4 38.0808 33.4 38.0754 33.4 38.07C33.4 38.0646 33.4 38.0592 33.4 38.0539C33.4 38.0485 33.4 38.0431 33.4 38.0377C33.4 38.0323 33.4 38.0269 33.4 38.0216C33.4 38.0162 33.4 38.0108 33.4 38.0054C33.4 38 33.4 37.9946 33.4 37.9893C33.4 37.9839 33.4 37.9785 33.4 37.9731C33.4 37.9677 33.4 37.9624 33.4 37.957C33.4 37.9516 33.4 37.9462 33.4 37.9408C33.4 37.9355 33.4 37.9301 33.4 37.9247C33.4 37.9193 33.4 37.9139 33.4 37.9086C33.4 37.9032 33.4 37.8978 33.4 37.8924C33.4 37.8871 33.4 37.8817 33.4 37.8763C33.4 37.8709 33.4 37.8656 33.4 37.8602C33.4 37.8548 33.4 37.8494 33.4 37.8441C33.4 37.8387 33.4 37.8333 33.4 37.8279C33.4 37.8226 33.4 37.8172 33.4 37.8118C33.4 37.8064 33.4 37.8011 33.4 37.7957C33.4 37.7903 33.4 37.785 33.4 37.7796C33.4 37.7742 33.4 37.7688 33.4 37.7635C33.4 37.7581 33.4 37.7527 33.4 37.7474C33.4 37.742 33.4 37.7366 33.4 37.7312C33.4 37.7259 33.4 37.7205 33.4 37.7151C33.4 37.7098 33.4 37.7044 33.4 37.699C33.4 37.6937 33.4 37.6883 33.4 37.6829C33.4 37.6776 33.4 37.6722 33.4 37.6668C33.4 37.6615 33.4 37.6561 33.4 37.6507C33.4 37.6454 33.4 37.64 33.4 37.6346C33.4 37.6293 33.4 37.6239 33.4 37.6185C33.4 37.6132 33.4 37.6078 33.4 37.6025C33.4 37.5971 33.4 37.5917 33.4 37.5864C33.4 37.581 33.4 37.5756 33.4 37.5703C33.4 37.5649 33.4 37.5596 33.4 37.5542C33.4 37.5488 33.4 37.5435 33.4 37.5381C33.4 37.5328 33.4 37.5274 33.4 37.522C33.4 37.5167 33.4 37.5113 33.4 37.506C33.4 37.5006 33.4 37.4952 33.4 37.4899C33.4 37.4845 33.4 37.4792 33.4 37.4738C33.4 37.4684 33.4 37.4631 33.4 37.4577C33.4 37.4524 33.4 37.447 33.4 37.4417C33.4 37.4363 33.4 37.4309 33.4 37.4256C33.4 37.4202 33.4 37.4149 33.4 37.4095C33.4 37.4042 33.4 37.3988 33.4 37.3935C33.4 37.3881 33.4 37.3828 33.4 37.3774C33.4 37.372 33.4 37.3667 33.4 37.3613C33.4 37.356 33.4 37.3506 33.4 37.3453C33.4 37.3399 33.4 37.3346 33.4 37.3292C33.4 37.3239 33.4 37.3185 33.4 37.3132C33.4 37.3078 33.4 37.3025 33.4 37.2971C33.4 37.2918 33.4 37.2864 33.4 37.2811C33.4 37.2757 33.4 37.2704 33.4 37.265C33.4 37.2597 33.4 37.2543 33.4 37.249C33.4 37.2436 33.4 37.2383 33.4 37.233C33.4 37.2276 33.4 37.2223 33.4 37.2169C33.4 37.2116 33.4 37.2062 33.4 37.2009C33.4 37.1955 33.4 37.1902 33.4 37.1848C33.4 37.1795 33.4 37.1742 33.4 37.1688C33.4 37.1635 33.4 37.1581 33.4 37.1528C33.4 37.1474 33.4 37.1421 33.4 37.1367C33.4 37.1314 33.4 37.1261 33.4 37.1207C33.4 37.1154 33.4 37.11 33.4 37.1047C33.4 37.0994 33.4 37.094 33.4 37.0887C33.4 37.0833 33.4 37.078 33.4 37.0727C33.4 37.0673 33.4 37.062 33.4 37.0566C33.4 37.0513 33.4 37.046 33.4 37.0406C33.4 37.0353 33.4 37.03 33.4 37.0246C33.4 37.0193 33.4 37.0139 33.4 37.0086C33.4 37.0033 33.4 36.9979 33.4 36.9926C33.4 36.9873 33.4 36.9819 33.4 36.9766C33.4 36.9713 33.4 36.9659 33.4 36.9606C33.4 36.9553 33.4 36.9499 33.4 36.9446C33.4 36.9393 33.4 36.9339 33.4 36.9286C33.4 36.9233 33.4 36.9179 33.4 36.9126C33.4 36.9073 33.4 36.9019 33.4 36.8966C33.4 36.8913 33.4 36.8859 33.4 36.8806C33.4 36.8753 33.4 36.8699 33.4 36.8646C33.4 36.8593 33.4 36.854 33.4 36.8486C33.4 36.8433 33.4 36.838 33.4 36.8326C33.4 36.8273 33.4 36.822 33.4 36.8167C33.4 36.8113 33.4 36.806 33.4 36.8007C33.4 36.7953 33.4 36.79 33.4 36.7847C33.4 36.7794 33.4 36.774 33.4 36.7687C33.4 36.7634 33.4 36.7581 33.4 36.7527C33.4 36.7474 33.4 36.7421 33.4 36.7368C33.4 36.7314 33.4 36.7261 33.4 36.7208C33.4 36.7155 33.4 36.7102 33.4 36.7048C33.4 36.6995 33.4 36.6942 33.4 36.6889C33.4 36.6835 33.4 36.6782 33.4 36.6729C33.4 36.6676 33.4 36.6623 33.4 36.6569C33.4 36.6516 33.4 36.6463 33.4 36.641C33.4 36.6357 33.4 36.6303 33.4 36.625C33.4 36.6197 33.4 36.6144 33.4 36.6091C33.4 36.6037 33.4 36.5984 33.4 36.5931C33.4 36.5878 33.4 36.5825 33.4 36.5772C33.4 36.5718 33.4 36.5665 33.4 36.5612C33.4 36.5559 33.4 36.5506 33.4 36.5453C33.4 36.5399 33.4 36.5346 33.4 36.5293C33.4 36.524 33.4 36.5187 33.4 36.5134C33.4 36.5081 33.4 36.5027 33.4 36.4974C33.4 36.4921 33.4 36.4868 33.4 36.4815C33.4 36.4762 33.4 36.4709 33.4 36.4656C33.4 36.4603 33.4 36.4549 33.4 36.4496C33.4 36.4443 33.4 36.439 33.4 36.4337C33.4 36.4284 33.4 36.4231 33.4 36.4178C33.4 36.4125 33.4 36.4072 33.4 36.4018C33.4 36.3965 33.4 36.3912 33.4 36.3859C33.4 36.3806 33.4 36.3753 33.4 36.37C33.4 36.3647 33.4 36.3594 33.4 36.3541C33.4 36.3488 33.4 36.3435 33.4 36.3382C33.4 36.3328 33.4 36.3275 33.4 36.3222C33.4 36.3169 33.4 36.3116 33.4 36.3063C33.4 36.301 33.4 36.2957 33.4 36.2904C33.4 36.2851 33.4 36.2798 33.4 36.2745C33.4 36.2692 33.4 36.2639 33.4 36.2586C33.4 36.2533 33.4 36.248 33.4 36.2427C33.4 36.2374 33.4 36.2321 33.4 36.2268C33.4 36.2215 33.4 36.2162 33.4 36.2109C33.4 36.2056 33.4 36.2003 33.4 36.195C33.4 36.1897 33.4 36.1844 33.4 36.1791C33.4 36.1738 33.4 36.1685 33.4 36.1632C33.4 36.1579 33.4 36.1526 33.4 36.1473C33.4 36.142 33.4 36.1367 33.4 36.1314C33.4 36.1261 33.4 36.1208 33.4 36.1155C33.4 36.1102 33.4 36.1049 33.4 36.0996C33.4 36.0944 33.4 36.0891 33.4 36.0838C33.4 36.0785 33.4 36.0732 33.4 36.0679C33.4 36.0626 33.4 36.0573 33.4 36.052C33.4 36.0467 33.4 36.0414 33.4 36.0361C33.4 36.0308 33.4 36.0256 33.4 36.0203C33.4 36.015 33.4 36.0097 33.4 36.0044C33.4 35.9991 33.4 35.9938 33.4 35.9885C33.4 35.9832 33.4 35.9779 33.4 35.9726C33.4 35.9674 33.4 35.9621 33.4 35.9568C33.4 35.9515 33.4 35.9462 33.4 35.9409C33.4 35.9356 33.4 35.9303 33.4 35.9251C33.4 35.9198 33.4 35.9145 33.4 35.9092C33.4 35.9039 33.4 35.8986 33.4 35.8933C33.4 35.8881 33.4 35.8828 33.4 35.8775C33.4 35.8722 33.4 35.8669 33.4 35.8616C33.4 35.8564 33.4 35.8511 33.4 35.8458C33.4 35.8405 33.4 35.8352 33.4 35.8299C33.4 35.8247 33.4 35.8194 33.4 35.8141C33.4 35.8088 33.4 35.8035 33.4 35.7982C33.4 35.793 33.4 35.7877 33.4 35.7824C33.4 35.7771 33.4 35.7719 33.4 35.7666C33.4 35.7613 33.4 35.756 33.4 35.7507C33.4 35.7455 33.4 35.7402 33.4 35.7349C33.4 35.7296 33.4 35.7243 33.4 35.7191C33.4 35.7138 33.4 35.7085 33.4 35.7032C33.4 35.698 33.4 35.6927 33.4 35.6874C33.4 35.6821 33.4 35.6769 33.4 35.6716C33.4 35.6663 33.4 35.661 33.4 35.6558C33.4 35.6505 33.4 35.6452 33.4 35.6399C33.4 35.6347 33.4 35.6294 33.4 35.6241C33.4 35.6188 33.4 35.6136 33.4 35.6083C33.4 35.603 33.4 35.5978 33.4 35.5925C33.4 35.5872 33.4 35.5819 33.4 35.5767C33.4 35.5714 33.4 35.5661 33.4 35.5609C33.4 35.5556 33.4 35.5503 33.4 35.5451C33.4 35.5398 33.4 35.5345 33.4 35.5293C33.4 35.524 33.4 35.5187 33.4 35.5134C33.4 35.5082 33.4 35.5029 33.4 35.4976C33.4 35.4924 33.4 35.4871 33.4 35.4818C33.4 35.4766 33.4 35.4713 33.4 35.466C33.4 35.4608 33.4 35.4555 33.4 35.4502C33.4 35.445 33.4 35.4397 33.4 35.4345C33.4 35.4292 33.4 35.4239 33.4 35.4187C33.4 35.4134 33.4 35.4081 33.4 35.4029C33.4 35.3976 33.4 35.3924 33.4 35.3871C33.4 35.3818 33.4 35.3766 33.4 35.3713C33.4 35.3661 33.4 35.3608 33.4 35.3555C33.4 35.3503 33.4 35.345 33.4 35.3397C33.4 35.3345 33.4 35.3292 33.4 35.324C33.4 35.3187 33.4 35.3135 33.4 35.3082C33.4 35.3029 33.4 35.2977 33.4 35.2924C33.4 35.2872 33.4 35.2819 33.4 35.2766C33.4 35.2714 33.4 35.2661 33.4 35.2609C33.4 35.2556 33.4 35.2504 33.4 35.2451C33.4 35.2399 33.4 35.2346 33.4 35.2293C33.4 35.2241 33.4 35.2188 33.4 35.2136C33.4 35.2083 33.4 35.2031 33.4 35.1978C33.4 35.1926 33.4 35.1873 33.4 35.1821C33.4 35.1768 33.4 35.1716 33.4 35.1663C33.4 35.1611 33.4 35.1558 33.4 35.1506C33.4 35.1453 33.4 35.1401 33.4 35.1348H31.4C31.4 35.1401 31.4 35.1453 31.4 35.1506C31.4 35.1558 31.4 35.1611 31.4 35.1663C31.4 35.1716 31.4 35.1768 31.4 35.1821C31.4 35.1873 31.4 35.1926 31.4 35.1978C31.4 35.2031 31.4 35.2083 31.4 35.2136C31.4 35.2188 31.4 35.2241 31.4 35.2293C31.4 35.2346 31.4 35.2399 31.4 35.2451C31.4 35.2504 31.4 35.2556 31.4 35.2609C31.4 35.2661 31.4 35.2714 31.4 35.2766C31.4 35.2819 31.4 35.2872 31.4 35.2924C31.4 35.2977 31.4 35.3029 31.4 35.3082C31.4 35.3135 31.4 35.3187 31.4 35.324C31.4 35.3292 31.4 35.3345 31.4 35.3397C31.4 35.345 31.4 35.3503 31.4 35.3555C31.4 35.3608 31.4 35.3661 31.4 35.3713C31.4 35.3766 31.4 35.3818 31.4 35.3871C31.4 35.3924 31.4 35.3976 31.4 35.4029C31.4 35.4081 31.4 35.4134 31.4 35.4187C31.4 35.4239 31.4 35.4292 31.4 35.4345C31.4 35.4397 31.4 35.445 31.4 35.4502C31.4 35.4555 31.4 35.4608 31.4 35.466C31.4 35.4713 31.4 35.4766 31.4 35.4818C31.4 35.4871 31.4 35.4924 31.4 35.4976C31.4 35.5029 31.4 35.5082 31.4 35.5134C31.4 35.5187 31.4 35.524 31.4 35.5293C31.4 35.5345 31.4 35.5398 31.4 35.5451C31.4 35.5503 31.4 35.5556 31.4 35.5609C31.4 35.5661 31.4 35.5714 31.4 35.5767C31.4 35.5819 31.4 35.5872 31.4 35.5925C31.4 35.5978 31.4 35.603 31.4 35.6083C31.4 35.6136 31.4 35.6188 31.4 35.6241C31.4 35.6294 31.4 35.6347 31.4 35.6399C31.4 35.6452 31.4 35.6505 31.4 35.6558C31.4 35.661 31.4 35.6663 31.4 35.6716C31.4 35.6769 31.4 35.6821 31.4 35.6874C31.4 35.6927 31.4 35.698 31.4 35.7032C31.4 35.7085 31.4 35.7138 31.4 35.7191C31.4 35.7243 31.4 35.7296 31.4 35.7349C31.4 35.7402 31.4 35.7455 31.4 35.7507C31.4 35.756 31.4 35.7613 31.4 35.7666C31.4 35.7719 31.4 35.7771 31.4 35.7824C31.4 35.7877 31.4 35.793 31.4 35.7982C31.4 35.8035 31.4 35.8088 31.4 35.8141C31.4 35.8194 31.4 35.8247 31.4 35.8299C31.4 35.8352 31.4 35.8405 31.4 35.8458C31.4 35.8511 31.4 35.8564 31.4 35.8616C31.4 35.8669 31.4 35.8722 31.4 35.8775C31.4 35.8828 31.4 35.8881 31.4 35.8933C31.4 35.8986 31.4 35.9039 31.4 35.9092C31.4 35.9145 31.4 35.9198 31.4 35.9251C31.4 35.9303 31.4 35.9356 31.4 35.9409C31.4 35.9462 31.4 35.9515 31.4 35.9568C31.4 35.9621 31.4 35.9674 31.4 35.9726C31.4 35.9779 31.4 35.9832 31.4 35.9885C31.4 35.9938 31.4 35.9991 31.4 36.0044C31.4 36.0097 31.4 36.015 31.4 36.0203C31.4 36.0256 31.4 36.0308 31.4 36.0361C31.4 36.0414 31.4 36.0467 31.4 36.052C31.4 36.0573 31.4 36.0626 31.4 36.0679C31.4 36.0732 31.4 36.0785 31.4 36.0838C31.4 36.0891 31.4 36.0944 31.4 36.0996C31.4 36.1049 31.4 36.1102 31.4 36.1155C31.4 36.1208 31.4 36.1261 31.4 36.1314C31.4 36.1367 31.4 36.142 31.4 36.1473C31.4 36.1526 31.4 36.1579 31.4 36.1632C31.4 36.1685 31.4 36.1738 31.4 36.1791C31.4 36.1844 31.4 36.1897 31.4 36.195C31.4 36.2003 31.4 36.2056 31.4 36.2109C31.4 36.2162 31.4 36.2215 31.4 36.2268C31.4 36.2321 31.4 36.2374 31.4 36.2427C31.4 36.248 31.4 36.2533 31.4 36.2586C31.4 36.2639 31.4 36.2692 31.4 36.2745C31.4 36.2798 31.4 36.2851 31.4 36.2904C31.4 36.2957 31.4 36.301 31.4 36.3063C31.4 36.3116 31.4 36.3169 31.4 36.3222C31.4 36.3275 31.4 36.3328 31.4 36.3382C31.4 36.3435 31.4 36.3488 31.4 36.3541C31.4 36.3594 31.4 36.3647 31.4 36.37C31.4 36.3753 31.4 36.3806 31.4 36.3859C31.4 36.3912 31.4 36.3965 31.4 36.4018C31.4 36.4072 31.4 36.4125 31.4 36.4178C31.4 36.4231 31.4 36.4284 31.4 36.4337C31.4 36.439 31.4 36.4443 31.4 36.4496C31.4 36.4549 31.4 36.4603 31.4 36.4656C31.4 36.4709 31.4 36.4762 31.4 36.4815C31.4 36.4868 31.4 36.4921 31.4 36.4974C31.4 36.5027 31.4 36.5081 31.4 36.5134C31.4 36.5187 31.4 36.524 31.4 36.5293C31.4 36.5346 31.4 36.5399 31.4 36.5453C31.4 36.5506 31.4 36.5559 31.4 36.5612C31.4 36.5665 31.4 36.5718 31.4 36.5772C31.4 36.5825 31.4 36.5878 31.4 36.5931C31.4 36.5984 31.4 36.6037 31.4 36.6091C31.4 36.6144 31.4 36.6197 31.4 36.625C31.4 36.6303 31.4 36.6357 31.4 36.641C31.4 36.6463 31.4 36.6516 31.4 36.6569C31.4 36.6623 31.4 36.6676 31.4 36.6729C31.4 36.6782 31.4 36.6835 31.4 36.6889C31.4 36.6942 31.4 36.6995 31.4 36.7048C31.4 36.7102 31.4 36.7155 31.4 36.7208C31.4 36.7261 31.4 36.7314 31.4 36.7368C31.4 36.7421 31.4 36.7474 31.4 36.7527C31.4 36.7581 31.4 36.7634 31.4 36.7687C31.4 36.774 31.4 36.7794 31.4 36.7847C31.4 36.79 31.4 36.7953 31.4 36.8007C31.4 36.806 31.4 36.8113 31.4 36.8167C31.4 36.822 31.4 36.8273 31.4 36.8326C31.4 36.838 31.4 36.8433 31.4 36.8486C31.4 36.854 31.4 36.8593 31.4 36.8646C31.4 36.8699 31.4 36.8753 31.4 36.8806C31.4 36.8859 31.4 36.8913 31.4 36.8966C31.4 36.9019 31.4 36.9073 31.4 36.9126C31.4 36.9179 31.4 36.9233 31.4 36.9286C31.4 36.9339 31.4 36.9393 31.4 36.9446C31.4 36.9499 31.4 36.9553 31.4 36.9606C31.4 36.9659 31.4 36.9713 31.4 36.9766C31.4 36.9819 31.4 36.9873 31.4 36.9926C31.4 36.9979 31.4 37.0033 31.4 37.0086C31.4 37.0139 31.4 37.0193 31.4 37.0246C31.4 37.03 31.4 37.0353 31.4 37.0406C31.4 37.046 31.4 37.0513 31.4 37.0566C31.4 37.062 31.4 37.0673 31.4 37.0727C31.4 37.078 31.4 37.0833 31.4 37.0887C31.4 37.094 31.4 37.0994 31.4 37.1047C31.4 37.11 31.4 37.1154 31.4 37.1207C31.4 37.1261 31.4 37.1314 31.4 37.1367C31.4 37.1421 31.4 37.1474 31.4 37.1528C31.4 37.1581 31.4 37.1635 31.4 37.1688C31.4 37.1742 31.4 37.1795 31.4 37.1848C31.4 37.1902 31.4 37.1955 31.4 37.2009C31.4 37.2062 31.4 37.2116 31.4 37.2169C31.4 37.2223 31.4 37.2276 31.4 37.233C31.4 37.2383 31.4 37.2436 31.4 37.249C31.4 37.2543 31.4 37.2597 31.4 37.265C31.4 37.2704 31.4 37.2757 31.4 37.2811C31.4 37.2864 31.4 37.2918 31.4 37.2971C31.4 37.3025 31.4 37.3078 31.4 37.3132C31.4 37.3185 31.4 37.3239 31.4 37.3292C31.4 37.3346 31.4 37.3399 31.4 37.3453C31.4 37.3506 31.4 37.356 31.4 37.3613C31.4 37.3667 31.4 37.372 31.4 37.3774C31.4 37.3828 31.4 37.3881 31.4 37.3935C31.4 37.3988 31.4 37.4042 31.4 37.4095C31.4 37.4149 31.4 37.4202 31.4 37.4256C31.4 37.4309 31.4 37.4363 31.4 37.4417C31.4 37.447 31.4 37.4524 31.4 37.4577C31.4 37.4631 31.4 37.4684 31.4 37.4738C31.4 37.4792 31.4 37.4845 31.4 37.4899C31.4 37.4952 31.4 37.5006 31.4 37.506C31.4 37.5113 31.4 37.5167 31.4 37.522C31.4 37.5274 31.4 37.5328 31.4 37.5381C31.4 37.5435 31.4 37.5488 31.4 37.5542C31.4 37.5596 31.4 37.5649 31.4 37.5703C31.4 37.5756 31.4 37.581 31.4 37.5864C31.4 37.5917 31.4 37.5971 31.4 37.6025C31.4 37.6078 31.4 37.6132 31.4 37.6185C31.4 37.6239 31.4 37.6293 31.4 37.6346C31.4 37.64 31.4 37.6454 31.4 37.6507C31.4 37.6561 31.4 37.6615 31.4 37.6668C31.4 37.6722 31.4 37.6776 31.4 37.6829C31.4 37.6883 31.4 37.6937 31.4 37.699C31.4 37.7044 31.4 37.7098 31.4 37.7151C31.4 37.7205 31.4 37.7259 31.4 37.7312C31.4 37.7366 31.4 37.742 31.4 37.7474C31.4 37.7527 31.4 37.7581 31.4 37.7635C31.4 37.7688 31.4 37.7742 31.4 37.7796C31.4 37.785 31.4 37.7903 31.4 37.7957C31.4 37.8011 31.4 37.8064 31.4 37.8118C31.4 37.8172 31.4 37.8226 31.4 37.8279C31.4 37.8333 31.4 37.8387 31.4 37.8441C31.4 37.8494 31.4 37.8548 31.4 37.8602C31.4 37.8656 31.4 37.8709 31.4 37.8763C31.4 37.8817 31.4 37.8871 31.4 37.8924C31.4 37.8978 31.4 37.9032 31.4 37.9086C31.4 37.9139 31.4 37.9193 31.4 37.9247C31.4 37.9301 31.4 37.9355 31.4 37.9408C31.4 37.9462 31.4 37.9516 31.4 37.957C31.4 37.9624 31.4 37.9677 31.4 37.9731C31.4 37.9785 31.4 37.9839 31.4 37.9893C31.4 37.9946 31.4 38 31.4 38.0054C31.4 38.0108 31.4 38.0162 31.4 38.0216C31.4 38.0269 31.4 38.0323 31.4 38.0377C31.4 38.0431 31.4 38.0485 31.4 38.0539C31.4 38.0592 31.4 38.0646 31.4 38.07C31.4 38.0754 31.4 38.0808 31.4 38.0862C31.4 38.0915 31.4 38.0969 31.4 38.1023C31.4 38.1077 31.4 38.1131 31.4 38.1185C31.4 38.1239 31.4 38.1292 31.4 38.1346C31.4 38.14 31.4 38.1454 31.4 38.1508C31.4 38.1562 31.4 38.1616 31.4 38.167C31.4 38.1724 31.4 38.1777 31.4 38.1831C31.4 38.1885 31.4 38.1939 31.4 38.1993C31.4 38.2047 31.4 38.2101 31.4 38.2155C31.4 38.2209 31.4 38.2263 31.4 38.2317C31.4 38.2371 31.4 38.2424 31.4 38.2478C31.4 38.2532 31.4 38.2586 31.4 38.264C31.4 38.2694 31.4 38.2748 31.4 38.2802C31.4 38.2856 31.4 38.291 31.4 38.2964C31.4 38.3018 31.4 38.3072 31.4 38.3126C31.4 38.318 31.4 38.3234 31.4 38.3288C31.4 38.3342 31.4 38.3395 31.4 38.3449C31.4 38.3503 31.4 38.3557 31.4 38.3611C31.4 38.3665 31.4 38.3719 31.4 38.3773C31.4 38.3827 31.4 38.3881 31.4 38.3935C31.4 38.3989 31.4 38.4043 31.4 38.4097C31.4 38.4151 31.4 38.4205 31.4 38.4259C31.4 38.4313 31.4 38.4367 31.4 38.4421C31.4 38.4475 31.4 38.4529 31.4 38.4583C31.4 38.4637 31.4 38.4691 31.4 38.4745C31.4 38.4799 31.4 38.4854 31.4 38.4908C31.4 38.4962 31.4 38.5016 31.4 38.507C31.4 38.5124 31.4 38.5178 31.4 38.5232C31.4 38.5286 31.4 38.534 31.4 38.5394C31.4 38.5448 31.4 38.5502 31.4 38.5556C31.4 38.561 31.4 38.5664 31.4 38.5718C31.4 38.5773 31.4 38.5827 31.4 38.5881C31.4 38.5935 31.4 38.5989 31.4 38.6043C31.4 38.6097 31.4 38.6151 31.4 38.6205C31.4 38.6259 31.4 38.6313 31.4 38.6367C31.4 38.6422 31.4 38.6476 31.4 38.653C31.4 38.6584 31.4 38.6638 31.4 38.6692C31.4 38.6746 31.4 38.68 31.4 38.6855C31.4 38.6909 31.4 38.6963 31.4 38.7017C31.4 38.7071 31.4 38.7125 31.4 38.7179C31.4 38.7234 31.4 38.7288 31.4 38.7342C31.4 38.7396 31.4 38.745 31.4 38.7504C31.4 38.7558 31.4 38.7613 31.4 38.7667C31.4 38.7721 31.4 38.7775 31.4 38.7829C31.4 38.7883 31.4 38.7938 31.4 38.7992C31.4 38.8046 31.4 38.81 31.4 38.8154C31.4 38.8208 31.4 38.8263 31.4 38.8317C31.4 38.8371 31.4 38.8425 31.4 38.8479C31.4 38.8534 31.4 38.8588 31.4 38.8642C31.4 38.8696 31.4 38.875 31.4 38.8805C31.4 38.8859 31.4 38.8913 31.4 38.8967C31.4 38.9022 31.4 38.9076 31.4 38.913C31.4 38.9184 31.4 38.9238 31.4 38.9293C31.4 38.9347 31.4 38.9401 31.4 38.9455C31.4 38.951 31.4 38.9564 31.4 38.9618C31.4 38.9672 31.4 38.9727 31.4 38.9781C31.4 38.9835 31.4 38.9889 31.4 38.9944C31.4 38.9998 31.4 39.0052 31.4 39.0107C31.4 39.0161 31.4 39.0215 31.4 39.0269C31.4 39.0324 31.4 39.0378 31.4 39.0432C31.4 39.0486 31.4 39.0541 31.4 39.0595C31.4 39.0649 31.4 39.0704 31.4 39.0758C31.4 39.0812 31.4 39.0867 31.4 39.0921C31.4 39.0975 31.4 39.103 31.4 39.1084C31.4 39.1138 31.4 39.1192 31.4 39.1247C31.4 39.1301 31.4 39.1355 31.4 39.141C31.4 39.1464 31.4 39.1518 31.4 39.1573C31.4 39.1627 31.4 39.1681 31.4 39.1736C31.4 39.179 31.4 39.1844 31.4 39.1899C31.4 39.1953 31.4 39.2008 31.4 39.2062C31.4 39.2116 31.4 39.2171 31.4 39.2225C31.4 39.2279 31.4 39.2334 31.4 39.2388C31.4 39.2442 31.4 39.2497 31.4 39.2551C31.4 39.2606 31.4 39.266 31.4 39.2714C31.4 39.2769 31.4 39.2823 31.4 39.2878C31.4 39.2932 31.4 39.2986 31.4 39.3041C31.4 39.3095 31.4 39.315 31.4 39.3204C31.4 39.3258 31.4 39.3313 31.4 39.3367C31.4 39.3422 31.4 39.3476 31.4 39.3531C31.4 39.3585 31.4 39.3639 31.4 39.3694C31.4 39.3748 31.4 39.3803 31.4 39.3857C31.4 39.3912 31.4 39.3966 31.4 39.402C31.4 39.4075 31.4 39.4129 31.4 39.4184C31.4 39.4238 31.4 39.4293 31.4 39.4347C31.4 39.4402 31.4 39.4456 31.4 39.4511C31.4 39.4565 31.4 39.462 31.4 39.4674C31.4 39.4728 31.4 39.4783 31.4 39.4837C31.4 39.4892 31.4 39.4946 31.4 39.5001C31.4 39.5055 31.4 39.511 31.4 39.5164C31.4 39.5219 31.4 39.5273 31.4 39.5328C31.4 39.5382 31.4 39.5437 31.4 39.5491C31.4 39.5546 31.4 39.5601 31.4 39.5655C31.4 39.571 31.4 39.5764 31.4 39.5819C31.4 39.5873 31.4 39.5928 31.4 39.5982C31.4 39.6037 31.4 39.6091 31.4 39.6146C31.4 39.62 31.4 39.6255 31.4 39.6309C31.4 39.6364 31.4 39.6419 31.4 39.6473C31.4 39.6528 31.4 39.6582 31.4 39.6637C31.4 39.6691 31.4 39.6746 31.4 39.68C31.4 39.6855 31.4 39.691 31.4 39.6964C31.4 39.7019 31.4 39.7073 31.4 39.7128C31.4 39.7183 31.4 39.7237 31.4 39.7292C31.4 39.7346 31.4 39.7401 31.4 39.7456C31.4 39.751 31.4 39.7565 31.4 39.7619C31.4 39.7674 31.4 39.7729 31.4 39.7783C31.4 39.7838 31.4 39.7892 31.4 39.7947C31.4 39.8002 31.4 39.8056 31.4 39.8111C31.4 39.8166 31.4 39.822 31.4 39.8275C31.4 39.8329 31.4 39.8384 31.4 39.8439C31.4 39.8493 31.4 39.8548 31.4 39.8603C31.4 39.8657 31.4 39.8712 31.4 39.8767C31.4 39.8821 31.4 39.8876 31.4 39.8931C31.4 39.8985 31.4 39.904 31.4 39.9095C31.4 39.9149 31.4 39.9204 31.4 39.9259C31.4 39.9313 31.4 39.9368 31.4 39.9423C31.4 39.9477 31.4 39.9532 31.4 39.9587C31.4 39.9642 31.4 39.9696 31.4 39.9751C31.4 39.9806 31.4 39.986 31.4 39.9915C31.4 39.997 31.4 40.0024 31.4 40.0079C31.4 40.0134 31.4 40.0189 31.4 40.0243C31.4 40.0298 31.4 40.0353 31.4 40.0408C31.4 40.0462 31.4 40.0517 31.4 40.0572C31.4 40.0627 31.4 40.0681 31.4 40.0736C31.4 40.0791 31.4 40.0846 31.4 40.09C31.4 40.0955 31.4 40.101 31.4 40.1065C31.4 40.1119 31.4 40.1174 31.4 40.1229C31.4 40.1284 31.4 40.1338 31.4 40.1393C31.4 40.1448 31.4 40.1503 31.4 40.1558C31.4 40.1612 31.4 40.1667 31.4 40.1722C31.4 40.1777 31.4 40.1832 31.4 40.1886C31.4 40.1941 31.4 40.1996 31.4 40.2051C31.4 40.2105 31.4 40.216 31.4 40.2215C31.4 40.227 31.4 40.2325 31.4 40.238C31.4 40.2434 31.4 40.2489 31.4 40.2544C31.4 40.2599 31.4 40.2654 31.4 40.2709C31.4 40.2763 31.4 40.2818 31.4 40.2873C31.4 40.2928 31.4 40.2983 31.4 40.3038C31.4 40.3092 31.4 40.3147 31.4 40.3202C31.4 40.3257 31.4 40.3312 31.4 40.3367C31.4 40.3422 31.4 40.3476 31.4 40.3531C31.4 40.3586 31.4 40.3641 31.4 40.3696C31.4 40.3751 31.4 40.3806 31.4 40.3861C31.4 40.3916 31.4 40.397 31.4 40.4025C31.4 40.408 31.4 40.4135 31.4 40.419C31.4 40.4245 31.4 40.43 31.4 40.4355C31.4 40.441 31.4 40.4465 31.4 40.452C31.4 40.4574 31.4 40.4629 31.4 40.4684C31.4 40.4739 31.4 40.4794 31.4 40.4849C31.4 40.4904 31.4 40.4959 31.4 40.5014C31.4 40.5069 31.4 40.5124 31.4 40.5179C31.4 40.5234 31.4 40.5289 31.4 40.5344C31.4 40.5398 31.4 40.5453 31.4 40.5508C31.4 40.5563 31.4 40.5618 31.4 40.5673C31.4 40.5728 31.4 40.5783 31.4 40.5838C31.4 40.5893 31.4 40.5948 31.4 40.6003C31.4 40.6058 31.4 40.6113 31.4 40.6168C31.4 40.6223 31.4 40.6278 31.4 40.6333C31.4 40.6388 31.4 40.6443 31.4 40.6498C31.4 40.6553 31.4 40.6608 31.4 40.6663C31.4 40.6718 31.4 40.6773 31.4 40.6828C31.4 40.6883 31.4 40.6938 31.4 40.6993C31.4 40.7048 31.4 40.7103 31.4 40.7158C31.4 40.7213 31.4 40.7268 31.4 40.7323C31.4 40.7378 31.4 40.7434 31.4 40.7489C31.4 40.7544 31.4 40.7599 31.4 40.7654C31.4 40.7709 31.4 40.7764 31.4 40.7819C31.4 40.7874 31.4 40.7929 31.4 40.7984C31.4 40.8039 31.4 40.8094 31.4 40.8149C31.4 40.8204 31.4 40.826 31.4 40.8315C31.4 40.837 31.4 40.8425 31.4 40.848C31.4 40.8535 31.4 40.859 31.4 40.8645C31.4 40.87 31.4 40.8755 31.4 40.881C31.4 40.8866 31.4 40.8921 31.4 40.8976C31.4 40.9031 31.4 40.9086 31.4 40.9141C31.4 40.9196 31.4 40.9251 31.4 40.9306C31.4 40.9362 31.4 40.9417 31.4 40.9472C31.4 40.9527 31.4 40.9582 31.4 40.9637C31.4 40.9692 31.4 40.9748 31.4 40.9803C31.4 40.9858 31.4 40.9913 31.4 40.9968C31.4 41.0023 31.4 41.0079 31.4 41.0134C31.4 41.0189 31.4 41.0244 31.4 41.0299C31.4 41.0354 31.4 41.041 31.4 41.0465C31.4 41.052 31.4 41.0575 31.4 41.063C31.4 41.0686 31.4 41.0741 31.4 41.0796C31.4 41.0851 31.4 41.0906 31.4 41.0962C31.4 41.1017 31.4 41.1072 31.4 41.1127C31.4 41.1182 31.4 41.1238 31.4 41.1293C31.4 41.1348 31.4 41.1403 31.4 41.1458C31.4 41.1514 31.4 41.1569 31.4 41.1624C31.4 41.1679 31.4 41.1735 31.4 41.179C31.4 41.1845 31.4 41.19 31.4 41.1956C31.4 41.2011 31.4 41.2066 31.4 41.2121C31.4 41.2177 31.4 41.2232 31.4 41.2287C31.4 41.2342 31.4 41.2398 31.4 41.2453C31.4 41.2508 31.4 41.2563 31.4 41.2619C31.4 41.2674 31.4 41.2729 31.4 41.2785C31.4 41.284 31.4 41.2895 31.4 41.295C31.4 41.3006 31.4 41.3061 31.4 41.3116C31.4 41.3172 31.4 41.3227 31.4 41.3282C31.4 41.3337 31.4 41.3393 31.4 41.3448C31.4 41.3503 31.4 41.3559 31.4 41.3614C31.4 41.3669 31.4 41.3725 31.4 41.378C31.4 41.3835 31.4 41.3891 31.4 41.3946C31.4 41.4001 31.4 41.4057 31.4 41.4112C31.4 41.4167 31.4 41.4223 31.4 41.4278C31.4 41.4333 31.4 41.4389 31.4 41.4444C31.4 41.4499 31.4 41.4555 31.4 41.461C31.4 41.4666 31.4 41.4721 31.4 41.4776C31.4 41.4832 31.4 41.4887 31.4 41.4942C31.4 41.4998 31.4 41.5053 31.4 41.5109C31.4 41.5164 31.4 41.5219 31.4 41.5275C31.4 41.533 31.4 41.5386 31.4 41.5441C31.4 41.5496 31.4 41.5552 31.4 41.5607C31.4 41.5663 31.4 41.5718 31.4 41.5773C31.4 41.5829 31.4 41.5884 31.4 41.594C31.4 41.5995 31.4 41.605 31.4 41.6106C31.4 41.6161 31.4 41.6217 31.4 41.6272C31.4 41.6328 31.4 41.6383 31.4 41.6439C31.4 41.6494 31.4 41.6549 31.4 41.6605C31.4 41.666 31.4 41.6716 31.4 41.6771C31.4 41.6827 31.4 41.6882 31.4 41.6938C31.4 41.6993 31.4 41.7049 31.4 41.7104C31.4 41.716 31.4 41.7215 31.4 41.727C31.4 41.7326 31.4 41.7381 31.4 41.7437C31.4 41.7492 31.4 41.7548 31.4 41.7603C31.4 41.7659 31.4 41.7714 31.4 41.777C31.4 41.7825 31.4 41.7881 31.4 41.7936C31.4 41.7992 31.4 41.8047 31.4 41.8103C31.4 41.8158 31.4 41.8214 31.4 41.827C31.4 41.8325 31.4 41.8381 31.4 41.8436C31.4 41.8492 31.4 41.8547 31.4 41.8603C31.4 41.8658 31.4 41.8714 31.4 41.8769C31.4 41.8825 31.4 41.888 31.4 41.8936C31.4 41.8992 31.4 41.9047 31.4 41.9103C31.4 41.9158 31.4 41.9214 31.4 41.9269C31.4 41.9325 31.4 41.938 31.4 41.9436C31.4 41.9492 31.4 41.9547 31.4 41.9603C31.4 41.9658 31.4 41.9714 31.4 41.977C31.4 41.9825 31.4 41.9881 31.4 41.9936C31.4 41.9992 31.4 42.0048 31.4 42.0103C31.4 42.0159 31.4 42.0214 31.4 42.027C31.4 42.0326 31.4 42.0381 31.4 42.0437C31.4 42.0492 31.4 42.0548 31.4 42.0604C31.4 42.0659 31.4 42.0715 31.4 42.0771C31.4 42.0826 31.4 42.0882 31.4 42.0938C31.4 42.0993 31.4 42.1049 31.4 42.1104C31.4 42.116 31.4 42.1216 31.4 42.1271C31.4 42.1327 31.4 42.1383 31.4 42.1438C31.4 42.1494 31.4 42.155 31.4 42.1605C31.4 42.1661 31.4 42.1717 31.4 42.1772C31.4 42.1828 31.4 42.1884 31.4 42.1939C31.4 42.1995 31.4 42.2051 31.4 42.2107C31.4 42.2162 31.4 42.2218 31.4 42.2274C31.4 42.2329 31.4 42.2385 31.4 42.2441C31.4 42.2496 31.4 42.2552 31.4 42.2608C31.4 42.2664 31.4 42.2719 31.4 42.2775C31.4 42.2831 31.4 42.2887 31.4 42.2942C31.4 42.2998 31.4 42.3054 31.4 42.3109C31.4 42.3165 31.4 42.3221 31.4 42.3277C31.4 42.3332 31.4 42.3388 31.4 42.3444C31.4 42.35 31.4 42.3555 31.4 42.3611C31.4 42.3667 31.4 42.3723 31.4 42.3778C31.4 42.3834 31.4 42.389 31.4 42.3946C31.4 42.4002 31.4 42.4057 31.4 42.4113C31.4 42.4169 31.4 42.4225 31.4 42.428C31.4 42.4336 31.4 42.4392 31.4 42.4448C31.4 42.4504 31.4 42.4559 31.4 42.4615C31.4 42.4671 31.4 42.4727 31.4 42.4783C31.4 42.4838 31.4 42.4894 31.4 42.495C31.4 42.5006 31.4 42.5062 31.4 42.5118C31.4 42.5173 31.4 42.5229 31.4 42.5285C31.4 42.5341 31.4 42.5397 31.4 42.5452C31.4 42.5508 31.4 42.5564 31.4 42.562C31.4 42.5676 31.4 42.5732 31.4 42.5788C31.4 42.5843 31.4 42.5899 31.4 42.5955C31.4 42.6011 31.4 42.6067 31.4 42.6123C31.4 42.6179 31.4 42.6235 31.4 42.629C31.4 42.6346 31.4 42.6402 31.4 42.6458C31.4 42.6514 31.4 42.657 31.4 42.6626C31.4 42.6682 31.4 42.6738 31.4 42.6793C31.4 42.6849 31.4 42.6905 31.4 42.6961C31.4 42.7017 31.4 42.7073 31.4 42.7129C31.4 42.7185 31.4 42.7241 31.4 42.7297C31.4 42.7353 31.4 42.7408 31.4 42.7464C31.4 42.752 31.4 42.7576 31.4 42.7632C31.4 42.7688 31.4 42.7744 31.4 42.78C31.4 42.7856 31.4 42.7912 31.4 42.7968C31.4 42.8024 31.4 42.808 31.4 42.8136C31.4 42.8192 31.4 42.8248 31.4 42.8304C31.4 42.836 31.4 42.8415 31.4 42.8471C31.4 42.8527 31.4 42.8583 31.4 42.8639C31.4 42.8695 31.4 42.8751 31.4 42.8807C31.4 42.8863 31.4 42.8919 31.4 42.8975C31.4 42.9031 31.4 42.9087 31.4 42.9143C31.4 42.9199 31.4 42.9255 31.4 42.9311C31.4 42.9367 31.4 42.9423 31.4 42.9479C31.4 42.9535 31.4 42.9591 31.4 42.9647C31.4 42.9703 31.4 42.9759 31.4 42.9815C31.4 42.9872 31.4 42.9928 31.4 42.9984C31.4 43.004 31.4 43.0096 31.4 43.0152C31.4 43.0208 31.4 43.0264 31.4 43.032C31.4 43.0376 31.4 43.0432 31.4 43.0488C31.4 43.0544 31.4 43.06 31.4 43.0656C31.4 43.0712 31.4 43.0768 31.4 43.0824C31.4 43.0881 31.4 43.0937 31.4 43.0993C31.4 43.1049 31.4 43.1105 31.4 43.1161C31.4 43.1217 31.4 43.1273 31.4 43.1329C31.4 43.1385 31.4 43.1441 31.4 43.1497C31.4 43.1554 31.4 43.161 31.4 43.1666C31.4 43.1722 31.4 43.1778 31.4 43.1834C31.4 43.189 31.4 43.1946 31.4 43.2002C31.4 43.2059 31.4 43.2115 31.4 43.2171C31.4 43.2227 31.4 43.2283 31.4 43.2339C31.4 43.2395 31.4 43.2452 31.4 43.2508C31.4 43.2564 31.4 43.262 31.4 43.2676C31.4 43.2732 31.4 43.2788 31.4 43.2845C31.4 43.2901 31.4 43.2957 31.4 43.3013C31.4 43.3069 31.4 43.3125 31.4 43.3182C31.4 43.3238 31.4 43.3294 31.4 43.335C31.4 43.3406 31.4 43.3463 31.4 43.3519C31.4 43.3575 31.4 43.3631 31.4 43.3687C31.4 43.3744 31.4 43.38 31.4 43.3856C31.4 43.3912 31.4 43.3968 31.4 43.4025C31.4 43.4081 31.4 43.4137 31.4 43.4193C31.4 43.4249 31.4 43.4306 31.4 43.4362C31.4 43.4418 31.4 43.4474 31.4 43.4531C31.4 43.4587 31.4 43.4643 31.4 43.4699C31.4 43.4756 31.4 43.4812 31.4 43.4868H33.4ZM33.3994 35.1693C33.4953 32.3872 33.5913 29.8456 33.6871 27.5444L31.6889 27.4612C31.5928 29.768 31.4967 32.3144 31.4006 35.1003L33.3994 35.1693ZM33.6877 27.5261C33.8783 19.3317 35.1664 13.3409 37.4405 9.42942L35.7115 8.42419C33.1856 12.7687 31.8817 19.1619 31.6883 27.4796L33.6877 27.5261ZM37.4455 9.42081C39.605 5.61998 43.6997 3.59081 50.112 3.59081V1.59081C43.2763 1.59081 38.347 3.78564 35.7065 8.4328L37.4455 9.42081ZM49.1386 2.81985L50.8666 10.1638L52.8134 9.70577L51.0854 2.36177L49.1386 2.81985ZM51.8144 8.93514C47.8742 9.03617 45.0012 10.375 43.7247 13.2761L45.5553 14.0815C46.3909 12.1826 48.3178 11.0255 51.8656 10.9345L51.8144 8.93514ZM43.7247 13.2761C42.5943 15.8451 42.056 19.067 42.056 22.8948H44.056C44.056 19.2346 44.5737 16.3125 45.5553 14.0815L43.7247 13.2761ZM43.056 23.8948H52.992V21.8948H43.056V23.8948ZM51.992 22.8948V43.4868H53.992V22.8948H51.992ZM52.992 42.4868H32.4V44.4868H52.992V42.4868Z" fill="white" mask="url(#path-1-outside-1_3932_1643)"/>
</svg>
